<svg xmlns="http://www.w3.org/2000/svg" xmlns:xlink="http://www.w3.org/1999/xlink" width="48" height="48" preserveAspectRatio="xMidYMid meet" viewBox="0 0 48 48" style="-ms-transform: rotate(360deg); -webkit-transform: rotate(360deg); transform: rotate(360deg);"><g fill="#D1C4E9"><path d="M38 7H10c-1.1 0-2 .9-2 2v6c0 1.1.9 2 2 2h28c1.1 0 2-.9 2-2V9c0-1.1-.9-2-2-2z"/><path d="M38 19H10c-1.1 0-2 .9-2 2v6c0 1.1.9 2 2 2h28c1.1 0 2-.9 2-2v-6c0-1.1-.9-2-2-2z"/><path d="M38 31H10c-1.1 0-2 .9-2 2v6c0 1.1.9 2 2 2h28c1.1 0 2-.9 2-2v-6c0-1.1-.9-2-2-2z"/></g><circle fill="#43A047" cx="38" cy="38" r="10"/><path fill="#DCEDC8" d="M42.5 33.3L36.8 39l-2.7-2.7l-2.1 2.2l4.8 4.8l7.8-7.8z"/><rect x="0" y="0" width="48" height="48" fill="rgba(0, 0, 0, 0)" /></svg>