<svg xmlns="http://www.w3.org/2000/svg" xmlns:xlink="http://www.w3.org/1999/xlink" width="512" height="512" preserveAspectRatio="xMidYMid meet" viewBox="0 0 512 512" style="-ms-transform: rotate(360deg); -webkit-transform: rotate(360deg); transform: rotate(360deg);"><path d="M256 48C141.31 48 48 141.31 48 256s93.31 208 208 208s208-93.31 208-208S370.69 48 256 48zm80 224h-64v64a16 16 0 0 1-32 0v-64h-64a16 16 0 0 1 0-32h64v-64a16 16 0 0 1 32 0v64h64a16 16 0 0 1 0 32z" fill="#626262"/><rect x="0" y="0" width="512" height="512" fill="rgba(0, 0, 0, 0)" /></svg>