<svg xmlns="http://www.w3.org/2000/svg" xmlns:xlink="http://www.w3.org/1999/xlink" width="24" height="24" preserveAspectRatio="xMidYMid meet" viewBox="0 0 24 24" style="-ms-transform: rotate(360deg); -webkit-transform: rotate(360deg); transform: rotate(360deg);"><path d="M12.962 5.05a5 5 0 1 1 7.668 6.387a9.008 9.008 0 0 0-7.668-6.386zM3.37 11.439a5 5 0 1 1 7.668-6.387a9.008 9.008 0 0 0-7.668 6.386zM12 21a7 7 0 1 1 0-14a7 7 0 0 1 0 14zm1-8V9a1 1 0 0 0-2 0v5a1 1 0 0 0 1 1h3a1 1 0 0 0 0-2h-2z" fill="#626262"/><rect x="0" y="0" width="24" height="24" fill="rgba(0, 0, 0, 0)" /></svg>