<svg xmlns="http://www.w3.org/2000/svg" xmlns:xlink="http://www.w3.org/1999/xlink" width="24" height="24" preserveAspectRatio="xMidYMid meet" viewBox="0 0 24 24" style="-ms-transform: rotate(360deg); -webkit-transform: rotate(360deg); transform: rotate(360deg);"><path d="M10.21 6.21l.79-.8V8a1 1 0 0 0 2 0V5.41l.79.8a1 1 0 0 0 1.42 0a1 1 0 0 0 0-1.42l-2.5-2.5a1 1 0 0 0-.33-.21a1 1 0 0 0-.76 0a1 1 0 0 0-.33.21l-2.5 2.5a1 1 0 0 0 1.42 1.42zM16 11H8a1 1 0 0 0 0 2h8a1 1 0 0 0 0-2zm-2.21 6.79l-.79.8V16a1 1 0 0 0-2 0v2.59l-.79-.8a1 1 0 0 0-1.42 1.42l2.5 2.5a1 1 0 0 0 .33.21a.94.94 0 0 0 .76 0a1 1 0 0 0 .33-.21l2.5-2.5a1 1 0 0 0-1.42-1.42z" fill="#626262"/><rect x="0" y="0" width="24" height="24" fill="rgba(0, 0, 0, 0)" /></svg>