<svg xmlns="http://www.w3.org/2000/svg" xmlns:xlink="http://www.w3.org/1999/xlink" width="24" height="24" preserveAspectRatio="xMidYMid meet" viewBox="0 0 24 24" style="-ms-transform: rotate(360deg); -webkit-transform: rotate(360deg); transform: rotate(360deg);"><path d="M19 13h-2a1 1 0 0 0 0 2h.91A6 6 0 0 1 13 19.91V11h1a1 1 0 0 0 0-2h-1V7.82a3 3 0 1 0-2 0V9h-1a1 1 0 0 0 0 2h1v8.91A6 6 0 0 1 6.09 15H7a1 1 0 0 0 0-2H5a1 1 0 0 0-1 1a8 8 0 0 0 16 0a1 1 0 0 0-1-1zm-7-7a1 1 0 1 1 1-1a1 1 0 0 1-1 1z" fill="#626262"/><rect x="0" y="0" width="24" height="24" fill="rgba(0, 0, 0, 0)" /></svg>