<svg xmlns="http://www.w3.org/2000/svg" xmlns:xlink="http://www.w3.org/1999/xlink" width="24" height="24" preserveAspectRatio="xMidYMid meet" viewBox="0 0 24 24" style="-ms-transform: rotate(360deg); -webkit-transform: rotate(360deg); transform: rotate(360deg);"><path d="M8.39 10.248h-.026a.598.598 0 0 0-.596.596v2.594c0 .329.267.596.596.596h.026a.598.598 0 0 0 .596-.596v-2.594a.598.598 0 0 0-.597-.596zm.88 4.192c0 .3.247.546.548.546h.586v1.402c0 .329.268.596.596.596h.025a.598.598 0 0 0 .597-.596v-1.402h.818v1.402c0 .329.27.596.596.596h.026a.598.598 0 0 0 .596-.596v-1.402h.586c.3 0 .547-.245.547-.547v-4.096H9.27v4.096zm4.136-6.581l.465-.718a.099.099 0 1 0-.166-.108l-.482.743a3.142 3.142 0 0 0-1.192-.232c-.427 0-.83.084-1.192.232l-.481-.743a.099.099 0 0 0-.137-.029a.099.099 0 0 0-.03.137l.466.718c-.839.41-1.405 1.185-1.405 2.074c0 .055.004.109.009.162h5.541c.005-.053.008-.107.008-.162c0-.889-.566-1.663-1.404-2.074zm-2.66 1.284a.266.266 0 1 1 0-.532a.266.266 0 0 1 0 .532zm2.57 0a.266.266 0 1 1-.001-.532a.266.266 0 0 1 0 .532zm2.382 1.105h-.025a.598.598 0 0 0-.597.596v2.594c0 .329.27.596.597.596h.025a.597.597 0 0 0 .596-.596v-2.594a.598.598 0 0 0-.596-.596z" fill="#626262"/><path d="M12 20a8 8 0 1 0 0-16a8 8 0 0 0 0 16zm0 2C6.477 22 2 17.523 2 12S6.477 2 12 2s10 4.477 10 10s-4.477 10-10 10z" fill="#626262"/><rect x="0" y="0" width="24" height="24" fill="rgba(0, 0, 0, 0)" /></svg>