<svg xmlns="http://www.w3.org/2000/svg" xmlns:xlink="http://www.w3.org/1999/xlink" width="24" height="24" preserveAspectRatio="xMidYMid meet" viewBox="0 0 24 24" style="-ms-transform: rotate(360deg); -webkit-transform: rotate(360deg); transform: rotate(360deg);"><path d="M11.46 8.29a1 1 0 0 0-1.42 0l-3 3a1 1 0 0 0 0 1.42l3 3a1 1 0 0 0 1.42 0a1 1 0 0 0 0-1.42L9.16 12l2.3-2.29a1 1 0 0 0 0-1.42zm3.2 3.71L17 9.71a1 1 0 0 0-1.42-1.42l-3 3a1 1 0 0 0 0 1.42l3 3a1 1 0 0 0 1.42 0a1 1 0 0 0 0-1.42z" fill="#626262"/><rect x="0" y="0" width="24" height="24" fill="rgba(0, 0, 0, 0)" /></svg>