<svg xmlns="http://www.w3.org/2000/svg" xmlns:xlink="http://www.w3.org/1999/xlink" width="24" height="24" preserveAspectRatio="xMidYMid meet" viewBox="0 0 24 24" style="-ms-transform: rotate(360deg); -webkit-transform: rotate(360deg); transform: rotate(360deg);"><path d="M8.46 8.29A1 1 0 1 0 7 9.71L9.34 12L7 14.29a1 1 0 0 0 0 1.42a1 1 0 0 0 1.42 0l3-3a1 1 0 0 0 0-1.42zm8.5 3l-3-3a1 1 0 0 0-1.42 1.42l2.3 2.29l-2.3 2.29a1 1 0 0 0 0 1.42a1 1 0 0 0 1.42 0l3-3a1 1 0 0 0 .04-1.42z" fill="#626262"/><rect x="0" y="0" width="24" height="24" fill="rgba(0, 0, 0, 0)" /></svg>