<svg xmlns="http://www.w3.org/2000/svg" xmlns:xlink="http://www.w3.org/1999/xlink" width="24" height="24" preserveAspectRatio="xMidYMid meet" viewBox="0 0 24 24" style="-ms-transform: rotate(360deg); -webkit-transform: rotate(360deg); transform: rotate(360deg);"><path d="M12.71 12.54a1 1 0 0 0-1.42 0l-3 3A1 1 0 0 0 9.71 17L12 14.66L14.29 17a1 1 0 0 0 1.42 0a1 1 0 0 0 0-1.42zm-3-1.08L12 9.16l2.29 2.3a1 1 0 0 0 1.42 0a1 1 0 0 0 0-1.42l-3-3a1 1 0 0 0-1.42 0l-3 3a1 1 0 0 0 1.42 1.42z" fill="#626262"/><rect x="0" y="0" width="24" height="24" fill="rgba(0, 0, 0, 0)" /></svg>