<svg xmlns="http://www.w3.org/2000/svg" xmlns:xlink="http://www.w3.org/1999/xlink" width="512" height="512" preserveAspectRatio="xMidYMid meet" viewBox="0 0 512 512" style="-ms-transform: rotate(360deg); -webkit-transform: rotate(360deg); transform: rotate(360deg);"><rect x="48" y="48" width="112" height="112" rx="8" ry="8" fill="#626262"/><rect x="200" y="48" width="112" height="112" rx="8" ry="8" fill="#626262"/><rect x="352" y="48" width="112" height="112" rx="8" ry="8" fill="#626262"/><rect x="48" y="200" width="112" height="112" rx="8" ry="8" fill="#626262"/><rect x="200" y="200" width="112" height="112" rx="8" ry="8" fill="#626262"/><rect x="352" y="200" width="112" height="112" rx="8" ry="8" fill="#626262"/><rect x="48" y="352" width="112" height="112" rx="8" ry="8" fill="#626262"/><rect x="200" y="352" width="112" height="112" rx="8" ry="8" fill="#626262"/><rect x="352" y="352" width="112" height="112" rx="8" ry="8" fill="#626262"/><rect x="0" y="0" width="512" height="512" fill="rgba(0, 0, 0, 0)" /></svg>