<svg xmlns="http://www.w3.org/2000/svg" xmlns:xlink="http://www.w3.org/1999/xlink" width="512" height="512" preserveAspectRatio="xMidYMid meet" viewBox="0 0 512 512" style="-ms-transform: rotate(360deg); -webkit-transform: rotate(360deg); transform: rotate(360deg);"><rect x="64" y="64" width="80" height="80" rx="40" ry="40" fill="none" stroke="#626262" stroke-miterlimit="10" stroke-width="32"/><rect x="216" y="64" width="80" height="80" rx="40" ry="40" fill="none" stroke="#626262" stroke-miterlimit="10" stroke-width="32"/><rect x="368" y="64" width="80" height="80" rx="40" ry="40" fill="none" stroke="#626262" stroke-miterlimit="10" stroke-width="32"/><rect x="64" y="216" width="80" height="80" rx="40" ry="40" fill="none" stroke="#626262" stroke-miterlimit="10" stroke-width="32"/><rect x="216" y="216" width="80" height="80" rx="40" ry="40" fill="none" stroke="#626262" stroke-miterlimit="10" stroke-width="32"/><rect x="368" y="216" width="80" height="80" rx="40" ry="40" fill="none" stroke="#626262" stroke-miterlimit="10" stroke-width="32"/><rect x="64" y="368" width="80" height="80" rx="40" ry="40" fill="none" stroke="#626262" stroke-miterlimit="10" stroke-width="32"/><rect x="216" y="368" width="80" height="80" rx="40" ry="40" fill="none" stroke="#626262" stroke-miterlimit="10" stroke-width="32"/><rect x="368" y="368" width="80" height="80" rx="40" ry="40" fill="none" stroke="#626262" stroke-miterlimit="10" stroke-width="32"/><rect x="0" y="0" width="512" height="512" fill="rgba(0, 0, 0, 0)" /></svg>