<svg xmlns="http://www.w3.org/2000/svg" xmlns:xlink="http://www.w3.org/1999/xlink" width="1024" height="1024" preserveAspectRatio="xMidYMid meet" viewBox="0 0 1024 1024" style="-ms-transform: rotate(360deg); -webkit-transform: rotate(360deg); transform: rotate(360deg);"><path d="M464 144H160c-8.8 0-16 7.2-16 16v304c0 8.8 7.2 16 16 16h304c8.8 0 16-7.2 16-16V160c0-8.8-7.2-16-16-16zm-52 268H212V212h200v200zm452-268H560c-8.8 0-16 7.2-16 16v304c0 8.8 7.2 16 16 16h304c8.8 0 16-7.2 16-16V160c0-8.8-7.2-16-16-16zm-52 268H612V212h200v200zM464 544H160c-8.8 0-16 7.2-16 16v304c0 8.8 7.2 16 16 16h304c8.8 0 16-7.2 16-16V560c0-8.8-7.2-16-16-16zm-52 268H212V612h200v200zm452-268H560c-8.8 0-16 7.2-16 16v304c0 8.8 7.2 16 16 16h304c8.8 0 16-7.2 16-16V560c0-8.8-7.2-16-16-16zm-52 268H612V612h200v200z" fill="#626262"/><rect x="0" y="0" width="1024" height="1024" fill="rgba(0, 0, 0, 0)" /></svg>