<svg xmlns="http://www.w3.org/2000/svg" xmlns:xlink="http://www.w3.org/1999/xlink" width="24" height="24" preserveAspectRatio="xMidYMid meet" viewBox="0 0 24 24" style="-ms-transform: rotate(360deg); -webkit-transform: rotate(360deg); transform: rotate(360deg);"><path d="M15.71 12.71a1 1 0 0 0 .21-.33a1 1 0 0 0 0-.76a1 1 0 0 0-.21-.33l-3-3a1 1 0 0 0-1.42 1.42l1.3 1.29H9a1 1 0 0 0 0 2h3.59l-1.3 1.29a1 1 0 0 0 0 1.42a1 1 0 0 0 1.42 0zM22 12a10 10 0 1 0-10 10a10 10 0 0 0 10-10zM4 12a8 8 0 1 1 8 8a8 8 0 0 1-8-8z" fill="#626262"/><rect x="0" y="0" width="24" height="24" fill="rgba(0, 0, 0, 0)" /></svg>