<svg xmlns="http://www.w3.org/2000/svg" xmlns:xlink="http://www.w3.org/1999/xlink" width="24" height="24" preserveAspectRatio="xMidYMid meet" viewBox="0 0 24 24" style="-ms-transform: rotate(360deg); -webkit-transform: rotate(360deg); transform: rotate(360deg);"><path d="M8.29 11.29a1 1 0 0 0-.21.33a1 1 0 0 0 0 .76a1 1 0 0 0 .21.33l3 3a1 1 0 0 0 1.42-1.42L11.41 13H15a1 1 0 0 0 0-2h-3.59l1.3-1.29a1 1 0 0 0 0-1.42a1 1 0 0 0-1.42 0zM2 12A10 10 0 1 0 12 2A10 10 0 0 0 2 12zm18 0a8 8 0 1 1-8-8a8 8 0 0 1 8 8z" fill="#626262"/><rect x="0" y="0" width="24" height="24" fill="rgba(0, 0, 0, 0)" /></svg>