<svg xmlns="http://www.w3.org/2000/svg" xmlns:xlink="http://www.w3.org/1999/xlink" width="24" height="24" preserveAspectRatio="xMidYMid meet" viewBox="0 0 24 24" style="-ms-transform: rotate(360deg); -webkit-transform: rotate(360deg); transform: rotate(360deg);"><path d="M17.71 11.29l-2.5-2.5a1 1 0 0 0-1.42 1.42l.8.79H9.41l.8-.79a1 1 0 0 0-1.42-1.42l-2.5 2.5a1 1 0 0 0-.21.33a1 1 0 0 0 0 .76a1 1 0 0 0 .21.33l2.5 2.5a1 1 0 0 0 1.42 0a1 1 0 0 0 0-1.42l-.8-.79h5.18l-.8.79a1 1 0 0 0 0 1.42a1 1 0 0 0 1.42 0l2.5-2.5a1 1 0 0 0 .21-.33a1 1 0 0 0 0-.76a1 1 0 0 0-.21-.33zM3 6a1 1 0 0 0-1 1v10a1 1 0 0 0 2 0V7a1 1 0 0 0-1-1zm18 0a1 1 0 0 0-1 1v10a1 1 0 0 0 2 0V7a1 1 0 0 0-1-1z" fill="#626262"/><rect x="0" y="0" width="24" height="24" fill="rgba(0, 0, 0, 0)" /></svg>