<svg xmlns="http://www.w3.org/2000/svg" xmlns:xlink="http://www.w3.org/1999/xlink" width="24" height="24" preserveAspectRatio="xMidYMid meet" viewBox="0 0 24 24" style="-ms-transform: rotate(360deg); -webkit-transform: rotate(360deg); transform: rotate(360deg);"><path d="M12.707 7.293a.997.997 0 0 0-1.414 0L7.05 11.536a1 1 0 0 0 1.414 1.414L11 10.414V16a1 1 0 0 0 2 0v-5.586l2.536 2.536a1 1 0 0 0 1.414-1.414l-4.243-4.243zM6 2h12a4 4 0 0 1 4 4v12a4 4 0 0 1-4 4H6a4 4 0 0 1-4-4V6a4 4 0 0 1 4-4z" fill="#626262"/><rect x="0" y="0" width="24" height="24" fill="rgba(0, 0, 0, 0)" /></svg>