<svg xmlns="http://www.w3.org/2000/svg" xmlns:xlink="http://www.w3.org/1999/xlink" width="512" height="512" preserveAspectRatio="xMidYMid meet" viewBox="0 0 512 512" style="-ms-transform: rotate(360deg); -webkit-transform: rotate(360deg); transform: rotate(360deg);"><path d="M48 256c0 114.87 93.13 208 208 208s208-93.13 208-208S370.87 48 256 48S48 141.13 48 256zm212.65-91.36a16 16 0 0 1 .09 22.63L208.42 240H342a16 16 0 0 1 0 32H208.42l52.32 52.73A16 16 0 1 1 238 347.27l-79.39-80a16 16 0 0 1 0-22.54l79.39-80a16 16 0 0 1 22.65-.09z" fill="#626262"/><rect x="0" y="0" width="512" height="512" fill="rgba(0, 0, 0, 0)" /></svg>