<svg xmlns="http://www.w3.org/2000/svg" xmlns:xlink="http://www.w3.org/1999/xlink" width="20" height="20" preserveAspectRatio="xMidYMid meet" viewBox="0 0 20 20" style="-ms-transform: rotate(360deg); -webkit-transform: rotate(360deg); transform: rotate(360deg);"><path d="M10 .4C4.697.4.399 4.698.399 10A9.6 9.6 0 0 0 10 19.601c5.301 0 9.6-4.298 9.6-9.601c0-5.302-4.299-9.6-9.6-9.6zm-.001 17.2a7.6 7.6 0 1 1 0-15.2a7.6 7.6 0 1 1 0 15.2zM10 5.5L5.5 10l4.5 4.5V12h4V8h-4V5.5z" fill="#626262"/><rect x="0" y="0" width="20" height="20" fill="rgba(0, 0, 0, 0)" /></svg>