<svg xmlns="http://www.w3.org/2000/svg" xmlns:xlink="http://www.w3.org/1999/xlink" width="24" height="24" preserveAspectRatio="xMidYMid meet" viewBox="0 0 24 24" style="-ms-transform: rotate(360deg); -webkit-transform: rotate(360deg); transform: rotate(360deg);"><path d="M16.707 12.707a.997.997 0 0 0 0-1.414L12.464 7.05a1 1 0 0 0-1.414 1.414L13.586 11H8a1 1 0 1 0 0 2h5.586l-2.536 2.536a1 1 0 0 0 1.414 1.414l4.243-4.243zM6 2h12a4 4 0 0 1 4 4v12a4 4 0 0 1-4 4H6a4 4 0 0 1-4-4V6a4 4 0 0 1 4-4z" fill="#626262"/><rect x="0" y="0" width="24" height="24" fill="rgba(0, 0, 0, 0)" /></svg>