<svg xmlns="http://www.w3.org/2000/svg" xmlns:xlink="http://www.w3.org/1999/xlink" width="24" height="24" preserveAspectRatio="xMidYMid meet" viewBox="0 0 24 24" style="-ms-transform: rotate(360deg); -webkit-transform: rotate(360deg); transform: rotate(360deg);"><path d="M7 15h3a1 1 0 0 0 0-2H7a1 1 0 0 0 0 2zM19 5H5a3 3 0 0 0-3 3v9a3 3 0 0 0 3 3h14a3 3 0 0 0 3-3V8a3 3 0 0 0-3-3zm1 12a1 1 0 0 1-1 1H5a1 1 0 0 1-1-1v-6h16zm0-8H4V8a1 1 0 0 1 1-1h14a1 1 0 0 1 1 1z" fill="#626262"/><rect x="0" y="0" width="24" height="24" fill="rgba(0, 0, 0, 0)" /></svg>