<svg xmlns="http://www.w3.org/2000/svg" xmlns:xlink="http://www.w3.org/1999/xlink" width="24" height="24" preserveAspectRatio="xMidYMid meet" viewBox="0 0 24 24" style="-ms-transform: rotate(360deg); -webkit-transform: rotate(360deg); transform: rotate(360deg);"><path d="M19 6h-3V5a2 2 0 0 0-2-2h-4a2 2 0 0 0-2 2v1H5a3 3 0 0 0-3 3v9a3 3 0 0 0 3 3h14a3 3 0 0 0 3-3V9a3 3 0 0 0-3-3zm-9-1h4v1h-4zm10 13a1 1 0 0 1-1 1H5a1 1 0 0 1-1-1v-5.61L8.68 14A1.19 1.19 0 0 0 9 14h6a1.19 1.19 0 0 0 .32-.05L20 12.39zm0-7.72L14.84 12H9.16L4 10.28V9a1 1 0 0 1 1-1h14a1 1 0 0 1 1 1z" fill="#626262"/><rect x="0" y="0" width="24" height="24" fill="rgba(0, 0, 0, 0)" /></svg>