<svg xmlns="http://www.w3.org/2000/svg" xmlns:xlink="http://www.w3.org/1999/xlink" width="24" height="24" preserveAspectRatio="xMidYMid meet" viewBox="0 0 24 24" style="-ms-transform: rotate(360deg); -webkit-transform: rotate(360deg); transform: rotate(360deg);"><path d="M22.964 13.823a.948.948 0 0 0-.028-.175l-2.305-6.137A2.996 2.996 0 0 0 22 5a1 1 0 0 0-2 0a1 1 0 0 1-1.882.473A2.893 2.893 0 0 0 15.54 4H13V3a1 1 0 0 0-2 0v1H8.46a2.893 2.893 0 0 0-2.578 1.473A1 1 0 0 1 4 5a1 1 0 0 0-2 0a2.996 2.996 0 0 0 1.369 2.511l-2.305 6.137a.948.948 0 0 0-.028.175A.949.949 0 0 0 1 14c0 .01.003.018.003.027c0 .013.003.025.004.039a3.994 3.994 0 0 0 7.986 0c.001-.014.004-.026.004-.039c0-.01.003-.018.003-.027a.949.949 0 0 0-.036-.177a.948.948 0 0 0-.028-.175L6.629 7.504A2.99 2.99 0 0 0 7.643 6.42A.917.917 0 0 1 8.46 6H11v14H8a1 1 0 0 0 0 2h8a1 1 0 0 0 0-2h-3V6h2.54a.917.917 0 0 1 .817.42a2.99 2.99 0 0 0 1.014 1.084l-2.307 6.144a.948.948 0 0 0-.028.175A.949.949 0 0 0 15 14c0 .01.003.018.003.027c0 .013.003.025.004.039a3.994 3.994 0 0 0 7.986 0c.001-.014.004-.026.004-.039c0-.01.003-.018.003-.027a.949.949 0 0 0-.036-.177zM5 8.856L6.556 13H3.444zM6.723 15A2.023 2.023 0 0 1 5 16a2 2 0 0 1-1.731-1zM19 8.856L20.556 13h-3.112zM19 16a2 2 0 0 1-1.731-1h3.454A2.023 2.023 0 0 1 19 16z" fill="#626262"/><rect x="0" y="0" width="24" height="24" fill="rgba(0, 0, 0, 0)" /></svg>