<svg xmlns="http://www.w3.org/2000/svg" xmlns:xlink="http://www.w3.org/1999/xlink" width="512" height="512" preserveAspectRatio="xMidYMid meet" viewBox="0 0 512 512" style="-ms-transform: rotate(360deg); -webkit-transform: rotate(360deg); transform: rotate(360deg);"><path d="M480 496H48a32 32 0 0 1-32-32V32a16 16 0 0 1 32 0v432h432a16 16 0 0 1 0 32z" fill="#626262"/><path d="M156 432h-40a36 36 0 0 1-36-36V244a36 36 0 0 1 36-36h40a36 36 0 0 1 36 36v152a36 36 0 0 1-36 36z" fill="#626262"/><path d="M300 432h-40a36 36 0 0 1-36-36V196a36 36 0 0 1 36-36h40a36 36 0 0 1 36 36v200a36 36 0 0 1-36 36z" fill="#626262"/><path d="M443.64 432h-40a36 36 0 0 1-36-36V132a36 36 0 0 1 36-36h40a36 36 0 0 1 36 36v264a36 36 0 0 1-36 36z" fill="#626262"/><rect x="0" y="0" width="512" height="512" fill="rgba(0, 0, 0, 0)" /></svg>