<svg xmlns="http://www.w3.org/2000/svg" xmlns:xlink="http://www.w3.org/1999/xlink" width="24" height="24" preserveAspectRatio="xMidYMid meet" viewBox="0 0 24 24" style="-ms-transform: rotate(360deg); -webkit-transform: rotate(360deg); transform: rotate(360deg);"><defs><path id="IconifyId-16ea16cd503-e5581e-1268" d="M0 0h24v24H0z"/></defs><clipPath id="IconifyId-16ea16cd503-e5581e-1269"><use xlink:href="#IconifyId-16ea16cd503-e5581e-1268" overflow="visible"/></clipPath><path clip-path="url(#IconifyId-16ea16cd503-e5581e-1269)" d="M15 3l2.3 2.3l-2.89 2.87l1.42 1.42L18.7 6.7L21 9V3zM3 9l2.3-2.3l2.87 2.89l1.42-1.42L6.7 5.3L9 3H3zm6 12l-2.3-2.3l2.89-2.87l-1.42-1.42L5.3 17.3L3 15v6zm12-6l-2.3 2.3l-2.87-2.89l-1.42 1.42l2.89 2.87L15 21h6z" fill="#626262"/><rect x="0" y="0" width="24" height="24" fill="rgba(0, 0, 0, 0)" /></svg>