<svg xmlns="http://www.w3.org/2000/svg" xmlns:xlink="http://www.w3.org/1999/xlink" width="512" height="512" preserveAspectRatio="xMidYMid meet" viewBox="0 0 512 512" style="-ms-transform: rotate(360deg); -webkit-transform: rotate(360deg); transform: rotate(360deg);"><path d="M384 240H96V136a40.12 40.12 0 0 1 40-40h240a40.12 40.12 0 0 1 40 40v104z" fill="none" stroke="#626262" stroke-linecap="round" stroke-linejoin="round" stroke-width="32"/><path d="M48 416V304a64.19 64.19 0 0 1 64-64h288a64.19 64.19 0 0 1 64 64v112" fill="none" stroke="#626262" stroke-linecap="round" stroke-linejoin="round" stroke-width="32"/><path d="M48 416v-8a24.07 24.07 0 0 1 24-24h368a24.07 24.07 0 0 1 24 24v8" fill="none" stroke="#626262" stroke-linecap="round" stroke-linejoin="round" stroke-width="32"/><path d="M112 240v-16a32.09 32.09 0 0 1 32-32h80a32.09 32.09 0 0 1 32 32v16" fill="none" stroke="#626262" stroke-linecap="round" stroke-linejoin="round" stroke-width="32"/><path d="M256 240v-16a32.09 32.09 0 0 1 32-32h80a32.09 32.09 0 0 1 32 32v16" fill="none" stroke="#626262" stroke-linecap="round" stroke-linejoin="round" stroke-width="32"/><rect x="0" y="0" width="512" height="512" fill="rgba(0, 0, 0, 0)" /></svg>