<svg height="512pt" viewBox="0 -46 512 512" width="512pt" xmlns="http://www.w3.org/2000/svg"><path d="m482 45v150c0 8.398438-6.597656 15-15 15h-422c-8.402344 0-15-6.601562-15-15v-150c0-24.902344 20.097656-45 45-45h362c24.902344 0 45 20.097656 45 45zm0 0" fill="#68544f"/><path d="m467 210h-211v-210h181c24.902344 0 45 20.097656 45 45v150c0 8.398438-6.597656 15-15 15zm0 0" fill="#53433f"/><path d="m196 210h-61c-24.8125 0-45-20.1875-45-45v-30c0-24.8125 20.1875-45 45-45h61c24.8125 0 45 20.1875 45 45v30c0 24.8125-20.1875 45-45 45zm0 0" fill="#ede9e8"/><path d="m377 210h-61c-24.8125 0-45-20.1875-45-45v-30c0-24.8125 20.1875-45 45-45h61c24.8125 0 45 20.1875 45 45v30c0 24.8125-20.1875 45-45 45zm0 0" fill="#dfd7d5"/><path d="m512 300v105c0 8.398438-6.597656 15-15 15h-30c-8.402344 0-15-6.601562-15-15v-45h-392v45c0 8.398438-6.597656 15-15 15h-30c-8.402344 0-15-6.601562-15-15v-105l47.402344-30h427.097656zm0 0" fill="#53433f"/><path d="m512 300v105c0 8.398438-6.597656 15-15 15h-30c-8.402344 0-15-6.601562-15-15v-45h-196v-90h218.5zm0 0" fill="#3e322e"/><path d="m512 225v75h-512v-75c0-24.902344 20.097656-45 45-45h422c24.902344 0 45 20.097656 45 45zm0 0" fill="#ff7816"/><path d="m512 225v75h-256v-120h211c24.902344 0 45 20.097656 45 45zm0 0" fill="#ff4b00"/></svg>