<svg xmlns="http://www.w3.org/2000/svg" xmlns:xlink="http://www.w3.org/1999/xlink" width="512" height="512" preserveAspectRatio="xMidYMid meet" viewBox="0 0 512 512" style="-ms-transform: rotate(360deg); -webkit-transform: rotate(360deg); transform: rotate(360deg);"><path d="M400 0H176a64.11 64.11 0 0 0-62 48h228a74 74 0 0 1 74 74v304.89l22 17.6a16 16 0 0 0 19.34.5a16.41 16.41 0 0 0 6.66-13.42V64a64 64 0 0 0-64-64z" fill="#626262"/><path d="M320 80H112a64 64 0 0 0-64 64v351.62A16.36 16.36 0 0 0 54.6 509a16 16 0 0 0 19.71-.71L216 388.92l141.69 119.32a16 16 0 0 0 19.6.79a16.4 16.4 0 0 0 6.71-13.44V144a64 64 0 0 0-64-64z" fill="#626262"/><rect x="0" y="0" width="512" height="512" fill="rgba(0, 0, 0, 0)" /></svg>