<svg xmlns="http://www.w3.org/2000/svg" xmlns:xlink="http://www.w3.org/1999/xlink" width="24" height="24" preserveAspectRatio="xMidYMid meet" viewBox="0 0 24 24" style="-ms-transform: rotate(360deg); -webkit-transform: rotate(360deg); transform: rotate(360deg);"><path d="M13.414 11.358l1.414-1.414a1 1 0 0 0-1.414-1.415L12 9.944l-1.414-1.415a1 1 0 1 0-1.414 1.415l1.414 1.414l-1.414 1.414a1 1 0 1 0 1.414 1.414L12 12.772l1.414 1.414a1 1 0 0 0 1.414-1.414l-1.414-1.414zM8 2.358h8a3 3 0 0 1 3 3v15a2 2 0 0 1-3.348 1.477l-2.978-2.717a1 1 0 0 0-1.348 0l-2.978 2.717A2 2 0 0 1 5 20.358v-15a3 3 0 0 1 3-3z" fill="#626262"/><rect x="0" y="0" width="24" height="24" fill="rgba(0, 0, 0, 0)" /></svg>