<svg xmlns="http://www.w3.org/2000/svg" xmlns:xlink="http://www.w3.org/1999/xlink" width="24" height="24" preserveAspectRatio="xMidYMid meet" viewBox="0 0 24 24" style="-ms-transform: rotate(360deg); -webkit-transform: rotate(360deg); transform: rotate(360deg);"><path d="M8 4a1 1 0 0 0-1 1v15l2.978-2.717a3 3 0 0 1 4.044 0L17 20V5a1 1 0 0 0-1-1H8zm0-2h8a3 3 0 0 1 3 3v15a2 2 0 0 1-3.348 1.477l-2.978-2.717a1 1 0 0 0-1.348 0l-2.978 2.717A2 2 0 0 1 5 20V5a3 3 0 0 1 3-3zm5.414 9l1.414 1.414a1 1 0 1 1-1.414 1.414L12 12.414l-1.414 1.414a1 1 0 0 1-1.414-1.414L10.586 11L9.172 9.586a1 1 0 1 1 1.414-1.414L12 9.586l1.414-1.414a1 1 0 1 1 1.414 1.414L13.414 11z" fill="#626262"/><rect x="0" y="0" width="24" height="24" fill="rgba(0, 0, 0, 0)" /></svg>