<svg xmlns="http://www.w3.org/2000/svg" xmlns:xlink="http://www.w3.org/1999/xlink" width="24" height="24" preserveAspectRatio="xMidYMid meet" viewBox="0 0 24 24" style="-ms-transform: rotate(360deg); -webkit-transform: rotate(360deg); transform: rotate(360deg);"><path d="M8 2.358h8a3 3 0 0 1 3 3v15a2 2 0 0 1-3.348 1.477l-2.978-2.717a1 1 0 0 0-1.348 0l-2.978 2.717A2 2 0 0 1 5 20.358v-15a3 3 0 0 1 3-3zm1 8a1 1 0 1 0 0 2h6a1 1 0 0 0 0-2H9z" fill="#626262"/><rect x="0" y="0" width="24" height="24" fill="rgba(0, 0, 0, 0)" /></svg>