<?xml version="1.0" encoding="iso-8859-1"?>
<!-- Generator: Adobe Illustrator 19.0.0, SVG Export Plug-In . SVG Version: 6.00 Build 0)  -->
<svg version="1.1" id="Capa_1" xmlns="http://www.w3.org/2000/svg" xmlns:xlink="http://www.w3.org/1999/xlink" x="0px" y="0px"
	 viewBox="0 0 448.016 448.016" style="enable-background:new 0 0 448.016 448.016;" xml:space="preserve">
<path style="fill:#787878;" d="M0,104.344v223.664c0,8.8,7.2,16,16,16h320c8.832,0,16-7.168,16-16V104.344H0z"/>
<rect x="32.002" y="104.341" style="fill:#FFFFFF;" width="288" height="207.664"/>
<path style="fill:#333333;" d="M352,24.008c0-8.832-7.168-16-16-16H16c-8.832,0-16,7.168-16,16v80h352V24.008z"/>
<circle style="fill:#EF5F58;" cx="48.002" cy="56.005" r="16"/>
<circle style="fill:#F7BC30;" cx="112.01" cy="56.005" r="16"/>
<circle style="fill:#6CBE47;" cx="176.01" cy="56.005" r="16"/>
<polygon style="fill:#5886C5;" points="104.032,199.112 176,280.008 248.032,199.112 200.032,199.112 200.032,136.008 
	152.032,136.008 152.032,199.112 "/>
<path style="fill:#CDD7DE;" d="M425.616,261.032l17.872-17.872c3.12-3.12,3.12-8.192,0-11.312l-11.312-11.312
	c-3.12-3.12-8.192-3.12-11.312,0l-17.872,17.872c-14.64-10.976-32.032-18.4-50.976-21.12v-25.28c0-4.416-3.584-8-8-8h-16
	c-4.416,0-8,3.584-8,8v25.28c-54.256,7.776-96,54.32-96,110.72c0,61.856,50.144,112,112,112s112-50.144,112-112
	C448,302.856,439.616,279.72,425.616,261.032z"/>
<g>
	<path style="fill:#B3BEC6;" d="M352,217.288v-16.16c-5.248-0.672-10.576-1.12-16-1.12s-10.752,0.448-16,1.104v16.16
		c5.232-0.752,10.56-1.28,16-1.28S346.768,216.52,352,217.288z"/>
	<path style="fill:#B3BEC6;" d="M425.616,261.032l11.44-11.44c-3.248-4.176-6.688-8.256-10.528-12.096s-7.92-7.28-12.096-10.528
		l-11.44,11.44c4.24,3.168,8.368,6.56,12.208,10.416S422.432,256.792,425.616,261.032z"/>
</g>
<path style="fill:#FFFFFF;" d="M336,408.008c-44.112,0-80-35.888-80-80s35.888-80,80-80s80,35.888,80,80
	S380.112,408.008,336,408.008z"/>
<g>
	<circle style="fill:#D0D1D1;" cx="336.01" cy="272.005" r="8"/>
	<circle style="fill:#D0D1D1;" cx="336.01" cy="384.005" r="8"/>
	<circle style="fill:#D0D1D1;" cx="280.01" cy="328.005" r="8"/>
	<circle style="fill:#D0D1D1;" cx="392.01" cy="328.005" r="8"/>
	<circle style="fill:#D0D1D1;" cx="296.41" cy="288.405" r="8"/>
	<circle style="fill:#D0D1D1;" cx="375.61" cy="367.605" r="8"/>
	<circle style="fill:#D0D1D1;" cx="296.41" cy="367.605" r="8"/>
</g>
<path style="fill:#D64231;" d="M323.456,315.096c-7.024,7.024-7.024,18.432,0,25.456c7.04,7.04,18.432,7.024,25.456,0
	c1.152-1.152,2.112-2.416,2.88-3.744l29.008-49.216c1.68-2.848-1.536-6.064-4.384-4.384l-49.2,29.024
	C325.872,313,324.608,313.944,323.456,315.096z"/>
<g>
</g>
<g>
</g>
<g>
</g>
<g>
</g>
<g>
</g>
<g>
</g>
<g>
</g>
<g>
</g>
<g>
</g>
<g>
</g>
<g>
</g>
<g>
</g>
<g>
</g>
<g>
</g>
<g>
</g>
</svg>
