<?xml version="1.0" encoding="iso-8859-1"?>
<!-- Generator: Adobe Illustrator 19.0.0, SVG Export Plug-In . SVG Version: 6.00 Build 0)  -->
<svg version="1.1" id="Capa_1" xmlns="http://www.w3.org/2000/svg" xmlns:xlink="http://www.w3.org/1999/xlink" x="0px" y="0px"
	 viewBox="0 0 448 448" style="enable-background:new 0 0 448 448;" xml:space="preserve">
<path style="fill:#787878;" d="M0,104v224c0,8.8,7.2,16,16,16h352c8.832,0,16-7.168,16-16V104L0,104L0,104z"/>
<rect x="32" y="104" style="fill:#FFFFFF;" width="320" height="208"/>
<path style="fill:#333333;" d="M384,24c0-8.832-7.168-16-16-16H16C7.168,8,0,15.168,0,24v80h384V24z"/>
<circle style="fill:#EF5F58;" cx="48" cy="56" r="16"/>
<circle style="fill:#F7BC30;" cx="112" cy="56" r="16"/>
<circle style="fill:#6CBE47;" cx="176" cy="56" r="16"/>
<g>
	<polygon style="fill:#5886C5;" points="268.112,132.112 245.488,154.752 290.752,200 245.488,245.248 268.112,267.888 336,200 	"/>
	<polygon style="fill:#5886C5;" points="115.888,267.888 138.512,245.248 93.248,200 138.512,154.752 115.888,132.112 48,200 	"/>
	
		<rect x="111.852" y="183.985" transform="matrix(-0.3828 0.9238 -0.9238 -0.3828 450.0383 99.309)" style="fill:#5886C5;" width="159.987" height="31.999"/>
</g>
<path style="fill:#499F61;" d="M336,216c-61.856,0-112,50.144-112,112s50.144,112,112,112s112-50.144,112-112S397.856,216,336,216z"
	/>
<polygon style="fill:#FFFFFF;" points="319.024,384.576 262.464,328 285.088,305.376 319.024,339.312 386.912,271.424 
	409.536,294.064 "/>
<g>
</g>
<g>
</g>
<g>
</g>
<g>
</g>
<g>
</g>
<g>
</g>
<g>
</g>
<g>
</g>
<g>
</g>
<g>
</g>
<g>
</g>
<g>
</g>
<g>
</g>
<g>
</g>
<g>
</g>
</svg>
