<?xml version="1.0" encoding="iso-8859-1"?>
<!-- Generator: Adobe Illustrator 19.0.0, SVG Export Plug-In . SVG Version: 6.00 Build 0)  -->
<svg version="1.1" id="Capa_1" xmlns="http://www.w3.org/2000/svg" xmlns:xlink="http://www.w3.org/1999/xlink" x="0px" y="0px"
	 viewBox="0 0 446.4 446.4" style="enable-background:new 0 0 446.4 446.4;" xml:space="preserve">
<path style="fill:#F9F9FA;" d="M328,223.2v-128H8v216c0,13.6,10.4,24,24,24h192.8c4,53.6,48.8,96,103.2,96c57.6,0,104-46.4,104-104
	S385.6,223.2,328,223.2z"/>
<path style="fill:#787878;" d="M328,95.2H8v-56c0-13.6,10.4-24,24-24h272c13.6,0,24,10.4,24,24V95.2z"/>
<polygon style="fill:#5886C5;" points="168,268 113.6,207.2 152,207.2 152,143.2 184,143.2 184,207.2 222.4,207.2 "/>
<g>
	<circle style="fill:#010101;" cx="176" cy="55.2" r="16"/>
	<circle style="fill:#010101;" cx="112" cy="55.2" r="16"/>
	<circle style="fill:#010101;" cx="48" cy="55.2" r="16"/>
	<path style="fill:#010101;" d="M424,242.4l11.2,11.2l11.2-11.2l-33.6-33.6L401.6,220l11.2,11.2l-11.2,11.2
		c-17.6-15.2-40-25.6-65.6-27.2v-16h16v-16c-18.4,0-32.8,0-48,0v16h16V216c-58.4,4-104,52.8-104,111.2c-64,0-136.8,0-184,0
		c-9.6,0-16-6.4-16-16v-208h304v64h16v-128c0-17.6-14.4-32-32-32H32c-17.6,0-32,14.4-32,32v272c0,17.6,14.4,32,32,32h185.6
		c8,54.4,54.4,96,110.4,96c61.6,0,112-50.4,112-112c0-28-10.4-53.6-27.2-73.6L424,242.4z M16,39.2c0-9.6,6.4-16,16-16h272
		c9.6,0,16,6.4,16,16v48H16V39.2z M424,327.2c0,52.8-43.2,96-96,96s-96-43.2-96-96s43.2-96,96-96S424,274.4,424,327.2z"/>
	<rect x="320" y="247.2" style="fill:#010101;" width="16" height="16"/>
	<rect x="320" y="391.2" style="fill:#010101;" width="16" height="16"/>
	<rect x="248" y="319.2" style="fill:#010101;" width="16" height="16"/>
	<rect x="392" y="319.2" style="fill:#010101;" width="16" height="16"/>
	
		<rect x="269.168" y="268.823" transform="matrix(-0.7071 0.7071 -0.7071 -0.7071 668.8975 276.5786)" style="fill:#010101;" width="16" height="16"/>
	
		<rect x="371.24" y="370.081" transform="matrix(-0.7071 0.7071 -0.7071 -0.7071 914.7464 377.2613)" style="fill:#010101;" width="16" height="16"/>
	
		<rect x="269.017" y="370.488" transform="matrix(-0.7071 0.7071 -0.7071 -0.7071 740.5286 450.2388)" style="fill:#010101;" width="16" height="16"/>
	
		<rect x="311.126" y="292.997" transform="matrix(-0.7071 0.7071 -0.7071 -0.7071 817.0262 263.5702)" style="fill:#010101;" width="85.599" height="16"/>
	<path style="fill:#010101;" d="M192,135.2h-48v64H96l72,80.8l72-80.8h-48V135.2z M204,215.2L168,256l-36-40.8c11.2,0,17.6,0,28,0
		c0-23.2,0-41.6,0-64h16c0,22.4,0,40.8,0,64C192,215.2,193.6,215.2,204,215.2z"/>
</g>
<g>
</g>
<g>
</g>
<g>
</g>
<g>
</g>
<g>
</g>
<g>
</g>
<g>
</g>
<g>
</g>
<g>
</g>
<g>
</g>
<g>
</g>
<g>
</g>
<g>
</g>
<g>
</g>
<g>
</g>
</svg>
