<?xml version="1.0" encoding="iso-8859-1"?>
<!-- Generator: Adobe Illustrator 19.0.0, SVG Export Plug-In . SVG Version: 6.00 Build 0)  -->
<svg version="1.1" id="Capa_1" xmlns="http://www.w3.org/2000/svg" xmlns:xlink="http://www.w3.org/1999/xlink" x="0px" y="0px"
	 viewBox="0 0 384 384" style="enable-background:new 0 0 384 384;" xml:space="preserve">
<path style="fill:#F9F9FA;" d="M352,344H32c-13.906,0-24-10.094-24-24V120h368v200C376,333.906,365.906,344,352,344z"/>
<path style="fill:#DDDDDC;" d="M376,120H8V64c0-13.906,10.094-24,24-24h320c13.906,0,24,10.094,24,24V120z"/>
<g>
	<path style="fill:#010101;" d="M352,32H32C14.4,32,0,46.4,0,64v256c0,17.6,14.4,32,32,32h320c17.6,0,32-14.4,32-32V64
		C384,46.4,369.6,32,352,32z M368,320c0,9.6-6.4,16-16,16H32c-9.6,0-16-6.4-16-16V128h352V320z M368,112H16V64c0-9.6,6.4-16,16-16
		h320c9.6,0,16,6.4,16,16V112z"/>
	<circle style="fill:#010101;" cx="144" cy="80" r="16"/>
	<circle style="fill:#010101;" cx="96" cy="80" r="16"/>
	<circle style="fill:#010101;" cx="48" cy="80" r="16"/>
</g>
<circle style="fill:#CB5741;" cx="80" cy="272" r="24"/>
<circle style="fill:#5785C4;" cx="144" cy="192" r="24"/>
<circle style="fill:#F5BB2C;" cx="224" cy="256" r="24"/>
<circle style="fill:#489E60;" cx="304" cy="192" r="24"/>
<path d="M304,160c-17.673,0-32,14.326-32,32c0,4.668,1.052,9.072,2.849,13.071l-31.743,25.394C237.762,226.459,231.194,224,224,224
	s-13.76,2.459-19.105,6.466l-31.744-25.394C174.948,201.072,176,196.668,176,192c0-17.674-14.326-32-32-32
	c-17.673,0-32,14.326-32,32c0,7.194,2.459,13.761,6.466,19.105l-25.394,31.744C89.072,241.052,84.669,240,80,240
	c-17.673,0-32,14.326-32,32c0,17.673,14.327,32,32,32c17.674,0,32-14.327,32-32c0-7.194-2.459-13.762-6.466-19.106l25.394-31.743
	C134.928,222.948,139.332,224,144,224c7.194,0,13.76-2.459,19.105-6.466l31.744,25.394C193.052,246.928,192,251.331,192,256
	c0,17.673,14.327,32,32,32c17.674,0,32-14.327,32-32c0-4.669-1.052-9.072-2.849-13.071l31.744-25.394
	C290.239,221.541,296.806,224,304,224c17.674,0,32-14.327,32-32C336,174.326,321.674,160,304,160z M80,288c-8.822,0-16-7.178-16-16
	s7.178-16,16-16s16,7.178,16,16S88.822,288,80,288z M144,208c-8.822,0-16-7.178-16-16s7.178-16,16-16s16,7.178,16,16
	C160,200.822,152.822,208,144,208z M224,272c-8.822,0-16-7.178-16-16s7.178-16,16-16s16,7.178,16,16S232.822,272,224,272z M304,208
	c-8.822,0-16-7.178-16-16s7.178-16,16-16s16,7.178,16,16C320,200.822,312.822,208,304,208z"/>
<g>
</g>
<g>
</g>
<g>
</g>
<g>
</g>
<g>
</g>
<g>
</g>
<g>
</g>
<g>
</g>
<g>
</g>
<g>
</g>
<g>
</g>
<g>
</g>
<g>
</g>
<g>
</g>
<g>
</g>
</svg>
