<?xml version="1.0" encoding="iso-8859-1"?>
<!-- Generator: Adobe Illustrator 19.0.0, SVG Export Plug-In . SVG Version: 6.00 Build 0)  -->
<svg version="1.1" id="Capa_1" xmlns="http://www.w3.org/2000/svg" xmlns:xlink="http://www.w3.org/1999/xlink" x="0px" y="0px"
	 viewBox="0 0 416 416" style="enable-background:new 0 0 416 416;" xml:space="preserve">
<path style="fill:#797979;" d="M0,120v256c0,8.8,7.2,16,16,16h384c8.832,0,16-7.168,16-16V120L0,120L0,120z"/>
<rect x="32" y="120.001" style="fill:#FFFFFF;" width="352" height="240"/>
<path style="fill:#333333;" d="M400,24H16C7.168,24,0,31.168,0,40v80h416V40C416,31.168,408.832,24,400,24z"/>
<circle style="fill:#EE6058;" cx="48" cy="72.001" r="16"/>
<circle style="fill:#F5BB2C;" cx="112" cy="72.001" r="16"/>
<circle style="fill:#6DBE47;" cx="176" cy="72.001" r="16"/>
<polygon style="fill:#BBBBBB;" points="102.25,285 89.75,275 158.75,188.758 240,253.758 315,193.75 325,206.25 240,274.242 
	161.25,211.242 "/>
<circle style="fill:#459C60;" cx="320" cy="200.001" r="32"/>
<circle style="fill:#F1B924;" cx="240" cy="264.001" r="32"/>
<circle style="fill:#5683C3;" cx="160" cy="200.001" r="32"/>
<circle style="fill:#CB5741;" cx="96" cy="280.001" r="32"/>
<g>
</g>
<g>
</g>
<g>
</g>
<g>
</g>
<g>
</g>
<g>
</g>
<g>
</g>
<g>
</g>
<g>
</g>
<g>
</g>
<g>
</g>
<g>
</g>
<g>
</g>
<g>
</g>
<g>
</g>
</svg>
