<svg xmlns="http://www.w3.org/2000/svg" xmlns:xlink="http://www.w3.org/1999/xlink" width="24" height="24" preserveAspectRatio="xMidYMid meet" viewBox="0 0 24 24" style="-ms-transform: rotate(360deg); -webkit-transform: rotate(360deg); transform: rotate(360deg);"><path d="M20 7h-4V4c0-1.103-.897-2-2-2h-4c-1.103 0-2 .897-2 2v5H4c-1.103 0-2 .897-2 2v9a1 1 0 0 0 1 1h18a1 1 0 0 0 1-1V9c0-1.103-.897-2-2-2zM4 11h4v8H4v-8zm6-1V4h4v15h-4v-9zm10 9h-4V9h4v10z" fill="#626262"/><rect x="0" y="0" width="24" height="24" fill="rgba(0, 0, 0, 0)" /></svg>