<svg xmlns="http://www.w3.org/2000/svg" xmlns:xlink="http://www.w3.org/1999/xlink" width="24" height="24" preserveAspectRatio="xMidYMid meet" viewBox="0 0 24 24" style="-ms-transform: rotate(360deg); -webkit-transform: rotate(360deg); transform: rotate(360deg);"><path fill="none" d="M4 6v12h16.001L20 6H4zm4 10H6V8h2v8zm2 0H9V8h1v8zm2 0h-1V8h1v8zm4 0h-3V8h3v8zm2 0h-1V8h1v8z"/><path d="M20 4H4c-1.103 0-2 .897-2 2v12c0 1.103.897 2 2 2h16c1.103 0 2-.897 2-2V6c0-1.103-.897-2-2-2zM4 18V6h16l.001 12H4z" fill="#626262"/><path d="M6 8h2v8H6zm3 0h1v8H9zm8 0h1v8h-1zm-4 0h3v8h-3zm-2 0h1v8h-1z" fill="#626262"/><rect x="0" y="0" width="24" height="24" fill="rgba(0, 0, 0, 0)" /></svg>