<svg xmlns="http://www.w3.org/2000/svg" xmlns:xlink="http://www.w3.org/1999/xlink" width="512" height="512" preserveAspectRatio="xMidYMid meet" viewBox="0 0 512 512" style="-ms-transform: rotate(360deg); -webkit-transform: rotate(360deg); transform: rotate(360deg);"><path d="M432 64H96a16 16 0 0 0-16 16v192a96.11 96.11 0 0 0 96 96h112a96.11 96.11 0 0 0 96-96v-80h18a62.07 62.07 0 0 0 62-62V96a32 32 0 0 0-32-32zm0 66a30 30 0 0 1-30 30h-18V96h48z" fill="#626262"/><path d="M400 400H64a16 16 0 0 0 0 32h336a16 16 0 0 0 0-32z" fill="#626262"/><rect x="0" y="0" width="512" height="512" fill="rgba(0, 0, 0, 0)" /></svg>