<svg xmlns="http://www.w3.org/2000/svg" xmlns:xlink="http://www.w3.org/1999/xlink" width="24" height="24" preserveAspectRatio="xMidYMid meet" viewBox="0 0 24 24" style="-ms-transform: rotate(360deg); -webkit-transform: rotate(360deg); transform: rotate(360deg);"><path d="M12 19a1 1 0 1 0-1-1a1 1 0 0 0 1 1zm5 0a1 1 0 1 0-1-1a1 1 0 0 0 1 1zm0-4a1 1 0 1 0-1-1a1 1 0 0 0 1 1zm-5 0a1 1 0 1 0-1-1a1 1 0 0 0 1 1zm7-12h-1V2a1 1 0 0 0-2 0v1H8V2a1 1 0 0 0-2 0v1H5a3 3 0 0 0-3 3v14a3 3 0 0 0 3 3h14a3 3 0 0 0 3-3V6a3 3 0 0 0-3-3zm1 17a1 1 0 0 1-1 1H5a1 1 0 0 1-1-1v-9h16zm0-11H4V6a1 1 0 0 1 1-1h1v1a1 1 0 0 0 2 0V5h8v1a1 1 0 0 0 2 0V5h1a1 1 0 0 1 1 1zM7 15a1 1 0 1 0-1-1a1 1 0 0 0 1 1zm0 4a1 1 0 1 0-1-1a1 1 0 0 0 1 1z" fill="#626262"/><rect x="0" y="0" width="24" height="24" fill="rgba(0, 0, 0, 0)" /></svg>