<svg xmlns="http://www.w3.org/2000/svg" xmlns:xlink="http://www.w3.org/1999/xlink" width="24" height="24" preserveAspectRatio="xMidYMid meet" viewBox="0 0 24 24" style="-ms-transform: rotate(360deg); -webkit-transform: rotate(360deg); transform: rotate(360deg);"><path d="M20 10.5a1 1 0 0 0-1 1v7a1 1 0 0 1-1 1H4a1 1 0 0 1-1-1v-8a1 1 0 0 1 1-1h2a1 1 0 0 0 1-.68l.54-1.64a1 1 0 0 1 .95-.68H14a1 1 0 0 0 0-2H8.44A3 3 0 0 0 5.6 6.55l-.32 1H4a3 3 0 0 0-3 3v8a3 3 0 0 0 3 3h14a3 3 0 0 0 3-3v-7a1 1 0 0 0-1-1.05zm-9-1a4 4 0 1 0 4 4a4 4 0 0 0-4-4zm0 6a2 2 0 1 1 2-2a2 2 0 0 1-2 2zm11-11h-1v-1a1 1 0 0 0-2 0v1h-1a1 1 0 0 0 0 2h1v1a1 1 0 0 0 2 0v-1h1a1 1 0 0 0 0-2z" fill="#626262"/><rect x="0" y="0" width="24" height="24" fill="rgba(0, 0, 0, 0)" /></svg>