<svg xmlns="http://www.w3.org/2000/svg" xmlns:xlink="http://www.w3.org/1999/xlink" width="24" height="24" preserveAspectRatio="xMidYMid meet" viewBox="0 0 24 24" style="-ms-transform: rotate(360deg); -webkit-transform: rotate(360deg); transform: rotate(360deg);"><path d="M3.71 2.29a1 1 0 0 0-1.42 1.42l2.8 2.79H5a3 3 0 0 0-3 3v8a3 3 0 0 0 3 3h14.08l1.21 1.22a1 1 0 0 0 1.42 0a1 1 0 0 0 0-1.42zm6.49 9.33l2.68 2.68a2 2 0 0 1-.88.2a2 2 0 0 1-2-2a2 2 0 0 1 .2-.88zM5 18.5a1 1 0 0 1-1-1v-8a1 1 0 0 1 1-1h2.07l1.7 1.69A3.92 3.92 0 0 0 8 12.5a4 4 0 0 0 4 4a3.92 3.92 0 0 0 2.32-.77l2.77 2.77zm14-12h-1.28l-.31-1a3 3 0 0 0-2.85-2h-4.4a1 1 0 0 0 0 2h4.4a1 1 0 0 1 .95.68l.54 1.63a1 1 0 0 0 .95.69h2a1 1 0 0 1 1 1v5.84a1 1 0 1 0 2 0V9.5a3 3 0 0 0-3-3z" fill="#626262"/><rect x="0" y="0" width="24" height="24" fill="rgba(0, 0, 0, 0)" /></svg>