<svg xmlns="http://www.w3.org/2000/svg" xmlns:xlink="http://www.w3.org/1999/xlink" width="24" height="24" preserveAspectRatio="xMidYMid meet" viewBox="0 0 24 24" style="-ms-transform: rotate(360deg); -webkit-transform: rotate(360deg); transform: rotate(360deg);"><path d="M19 6.5h-1.28l-.32-1a3 3 0 0 0-2.84-2H9.44A3 3 0 0 0 6.6 5.55l-.32 1H5a3 3 0 0 0-3 3v8a3 3 0 0 0 3 3h14a3 3 0 0 0 3-3v-8a3 3 0 0 0-3-3.05zm1 11a1 1 0 0 1-1 1H5a1 1 0 0 1-1-1v-8a1 1 0 0 1 1-1h2a1 1 0 0 0 1-.68l.54-1.64a1 1 0 0 1 .95-.68h5.12a1 1 0 0 1 .95.68l.54 1.64a1 1 0 0 0 .9.68h2a1 1 0 0 1 1 1zm-8-9a4 4 0 1 0 4 4a4 4 0 0 0-4-4zm0 6a2 2 0 1 1 2-2a2 2 0 0 1-2 2z" fill="#626262"/><rect x="0" y="0" width="24" height="24" fill="rgba(0, 0, 0, 0)" /></svg>