<svg xmlns="http://www.w3.org/2000/svg" xmlns:xlink="http://www.w3.org/1999/xlink" width="24" height="24" preserveAspectRatio="xMidYMid meet" viewBox="0 0 24 24" style="-ms-transform: rotate(360deg); -webkit-transform: rotate(360deg); transform: rotate(360deg);"><path d="M21.77 11.36l-5-6A1 1 0 0 0 16 5H5a3 3 0 0 0-3 3v8a3 3 0 0 0 3 3h11a1 1 0 0 0 .77-.36l5-6a1 1 0 0 0 0-1.28zM15.53 17H5a1 1 0 0 1-1-1V8a1 1 0 0 1 1-1h10.53l4.17 5zm-2.82-7.71a1 1 0 0 0-1.42 0L10 10.59l-1.29-1.3a1 1 0 1 0-1.42 1.42L8.59 12l-1.3 1.29a1 1 0 0 0 0 1.42a1 1 0 0 0 1.42 0l1.29-1.3l1.29 1.3a1 1 0 0 0 1.42 0a1 1 0 0 0 0-1.42L11.41 12l1.3-1.29a1 1 0 0 0 0-1.42z" fill="#626262"/><rect x="0" y="0" width="24" height="24" fill="rgba(0, 0, 0, 0)" /></svg>