<svg xmlns="http://www.w3.org/2000/svg" xmlns:xlink="http://www.w3.org/1999/xlink" width="1024" height="1024" preserveAspectRatio="xMidYMid meet" viewBox="0 0 1024 1024" style="-ms-transform: rotate(360deg); -webkit-transform: rotate(360deg); transform: rotate(360deg);"><path d="M712 304c0 4.4-3.6 8-8 8h-56c-4.4 0-8-3.6-8-8v-48H384v48c0 4.4-3.6 8-8 8h-56c-4.4 0-8-3.6-8-8v-48H184v136h656V256H712v48z" fill-opacity=".15" fill="#626262"/><path d="M880 184H712v-64c0-4.4-3.6-8-8-8h-56c-4.4 0-8 3.6-8 8v64H384v-64c0-4.4-3.6-8-8-8h-56c-4.4 0-8 3.6-8 8v64H144c-17.7 0-32 14.3-32 32v664c0 17.7 14.3 32 32 32h736c17.7 0 32-14.3 32-32V216c0-17.7-14.3-32-32-32zm-40 656H184V460h656v380zm0-448H184V256h128v48c0 4.4 3.6 8 8 8h56c4.4 0 8-3.6 8-8v-48h256v48c0 4.4 3.6 8 8 8h56c4.4 0 8-3.6 8-8v-48h128v136z" fill="#626262"/><rect x="0" y="0" width="1024" height="1024" fill="rgba(0, 0, 0, 0)" /></svg>