<svg xmlns="http://www.w3.org/2000/svg" xmlns:xlink="http://www.w3.org/1999/xlink" width="24" height="24" preserveAspectRatio="xMidYMid meet" viewBox="0 0 24 24" style="-ms-transform: rotate(360deg); -webkit-transform: rotate(360deg); transform: rotate(360deg);"><path d="M19.5 4.5a5.12 5.12 0 0 0-7.24 0L4.5 12.26a5.12 5.12 0 1 0 7.24 7.24l7.76-7.76a5.12 5.12 0 0 0 0-7.24zm-9.18 13.59a3.21 3.21 0 0 1-4.41 0a3.13 3.13 0 0 1 0-4.41l3.18-3.18l4.41 4.41zm7.77-7.77l-3.18 3.18l-4.41-4.41l3.18-3.18a3.12 3.12 0 0 1 4.41 4.41z" fill="#626262"/><rect x="0" y="0" width="24" height="24" fill="rgba(0, 0, 0, 0)" /></svg>