<svg xmlns="http://www.w3.org/2000/svg" xmlns:xlink="http://www.w3.org/1999/xlink" width="24" height="24" preserveAspectRatio="xMidYMid meet" viewBox="0 0 24 24" style="-ms-transform: rotate(360deg); -webkit-transform: rotate(360deg); transform: rotate(360deg);"><path d="M3 9a1 1 0 0 0 1-1V5a1 1 0 0 1 1-1h3a1 1 0 0 0 0-2H5a3 3 0 0 0-3 3v3a1 1 0 0 0 1 1zm5 11H5a1 1 0 0 1-1-1v-3a1 1 0 0 0-2 0v3a3 3 0 0 0 3 3h3a1 1 0 0 0 0-2zm4-12a4 4 0 1 0 4 4a4 4 0 0 0-4-4zm0 6a2 2 0 1 1 2-2a2 2 0 0 1-2 2zm7-12h-3a1 1 0 0 0 0 2h3a1 1 0 0 1 1 1v3a1 1 0 0 0 2 0V5a3 3 0 0 0-3-3zm2 13a1 1 0 0 0-1 1v3a1 1 0 0 1-1 1h-3a1 1 0 0 0 0 2h3a3 3 0 0 0 3-3v-3a1 1 0 0 0-1-1z" fill="#626262"/><rect x="0" y="0" width="24" height="24" fill="rgba(0, 0, 0, 0)" /></svg>