<svg xmlns="http://www.w3.org/2000/svg" xmlns:xlink="http://www.w3.org/1999/xlink" width="24" height="24" preserveAspectRatio="xMidYMid meet" viewBox="0 0 24 24" style="-ms-transform: rotate(360deg); -webkit-transform: rotate(360deg); transform: rotate(360deg);"><path d="M12 2a10 10 0 1 0 4.93 18.69H17.05A10 10 0 0 0 12 2zm1 2.07A8 8 0 0 1 19.93 11H13zM12 20a8 8 0 0 1-1-15.93V12a1.09 1.09 0 0 0 .07.35V12.5l4 6.87A7.81 7.81 0 0 1 12 20zm4.83-1.64L13.73 13h6.2a8 8 0 0 1-3.1 5.36z" fill="#626262"/><rect x="0" y="0" width="24" height="24" fill="rgba(0, 0, 0, 0)" /></svg>