<svg xmlns="http://www.w3.org/2000/svg" xmlns:xlink="http://www.w3.org/1999/xlink" width="24" height="24" preserveAspectRatio="xMidYMid meet" viewBox="0 0 24 24" style="-ms-transform: rotate(360deg); -webkit-transform: rotate(360deg); transform: rotate(360deg);"><path d="M14.72 8.79l-4.29 4.3l-1.65-1.65a1 1 0 1 0-1.41 1.41l2.35 2.36a1 1 0 0 0 .71.29a1 1 0 0 0 .7-.29l5-5a1 1 0 0 0 0-1.42a1 1 0 0 0-1.41 0zM12 2a10 10 0 1 0 10 10A10 10 0 0 0 12 2zm0 18a8 8 0 1 1 8-8a8 8 0 0 1-8 8z" fill="#626262"/><rect x="0" y="0" width="24" height="24" fill="rgba(0, 0, 0, 0)" /></svg>