<svg xmlns="http://www.w3.org/2000/svg" xmlns:xlink="http://www.w3.org/1999/xlink" width="24" height="24" preserveAspectRatio="xMidYMid meet" viewBox="0 0 24 24" style="-ms-transform: rotate(360deg); -webkit-transform: rotate(360deg); transform: rotate(360deg);"><path d="M12 22C6.477 22 2 17.523 2 12S6.477 2 12 2s10 4.477 10 10s-4.477 10-10 10zm0-2a8 8 0 1 0 0-16a8 8 0 0 0 0 16zm1-7V8a1 1 0 0 1 2 0v6a1 1 0 0 1-1 1H8a1 1 0 0 1 0-2h5z" fill="#626262"/><rect x="0" y="0" width="24" height="24" fill="rgba(0, 0, 0, 0)" /></svg>