<svg xmlns="http://www.w3.org/2000/svg" xmlns:xlink="http://www.w3.org/1999/xlink" width="32" height="32" preserveAspectRatio="xMidYMid meet" viewBox="0 0 32 32" style="-ms-transform: rotate(360deg); -webkit-transform: rotate(360deg); transform: rotate(360deg);"><path d="M24.345 13.904a6.25 6.25 0 0 0-6.22-6.84a6.244 6.244 0 0 0-5.847 4.058a3.205 3.205 0 0 0-2.372-1.06a3.22 3.22 0 0 0-3.22 3.22c0 .21.024.415.063.613c-2.373.39-4.188 2.436-4.188 4.918a5 5 0 0 0 5 5h15.875a4.998 4.998 0 0 0 .908-9.91z" fill="#626262"/><rect x="0" y="0" width="32" height="32" fill="rgba(0, 0, 0, 0)" /></svg>