<svg xmlns="http://www.w3.org/2000/svg" xmlns:xlink="http://www.w3.org/1999/xlink" width="24" height="24" preserveAspectRatio="xMidYMid meet" viewBox="0 0 24 24" style="-ms-transform: rotate(360deg); -webkit-transform: rotate(360deg); transform: rotate(360deg);"><path d="M20 12c0-.568-.06-1.122-.174-1.656l1.834-1.612l-2-3.464l-2.322.786a7.974 7.974 0 0 0-2.86-1.657L14 2h-4l-.48 2.396c-1.07.35-2.04.92-2.858 1.657L4.34 5.268l-2 3.464l1.834 1.612a7.925 7.925 0 0 0 0 3.312L2.34 15.268l2 3.464l2.322-.786a7.974 7.974 0 0 0 2.86 1.657L10 22h4l.48-2.396a7.991 7.991 0 0 0 2.858-1.657l2.322.786l2-3.464l-1.834-1.613c.113-.535.174-1.09.174-1.657zm-8 4c-2.21 0-4-1.79-4-4s1.79-4 4-4s4 1.79 4 4s-1.79 4-4 4z" fill="#626262"/><rect x="0" y="0" width="24" height="24" fill="rgba(0, 0, 0, 0)" /></svg>