<svg xmlns="http://www.w3.org/2000/svg" xmlns:xlink="http://www.w3.org/1999/xlink" width="512" height="512" preserveAspectRatio="xMidYMid meet" viewBox="0 0 512 512" style="-ms-transform: rotate(360deg); -webkit-transform: rotate(360deg); transform: rotate(360deg);"><path d="M256 243.2c141.4 0 256-47.8 256-106.7c0-58.9-114.6-106.7-256-106.7S0 77.6 0 136.5c0 58.9 114.6 106.7 256 106.7zm0 170.6c-97.7 0-184.1-23.5-238.6-59.8C6.3 366 0 378.9 0 392.5c0 58.9 114.6 106.7 256 106.7s256-47.8 256-106.7c0-13.6-6.3-26.5-17.4-38.4c-54.5 36.2-140.9 59.7-238.6 59.7zm0-128c-97.7 0-184.1-23.5-238.6-59.8C6.3 238 0 250.9 0 264.5c0 58.9 114.6 106.7 256 106.7s256-47.8 256-106.7c0-13.6-6.3-26.5-17.4-38.4c-54.5 36.2-140.9 59.7-238.6 59.7z" fill="#626262"/><rect x="0" y="0" width="512" height="512" fill="rgba(0, 0, 0, 0)" /></svg>