<svg xmlns="http://www.w3.org/2000/svg" xmlns:xlink="http://www.w3.org/1999/xlink" width="48" height="48" preserveAspectRatio="xMidYMid meet" viewBox="0 0 48 48" style="-ms-transform: rotate(360deg); -webkit-transform: rotate(360deg); transform: rotate(360deg);"><g fill="#00BCD4"><path d="M37 18h6v24h-6z"/><path d="M29 26h6v16h-6z"/><path d="M21 22h6v20h-6z"/><path d="M13 32h6v10h-6z"/><path d="M5 28h6v14H5z"/></g><g fill="#3F51B5"><circle cx="8" cy="16" r="3"/><circle cx="16" cy="18" r="3"/><circle cx="24" cy="11" r="3"/><circle cx="32" cy="13" r="3"/><circle cx="40" cy="9" r="3"/><path d="M39.1 7.2l-7.3 3.7l-8.3-2.1l-8 7l-7-1.7l-1 3.8l9 2.3l8-7l7.7 1.9l8.7-4.3z"/></g><rect x="0" y="0" width="48" height="48" fill="rgba(0, 0, 0, 0)" /></svg>