<svg xmlns="http://www.w3.org/2000/svg" xmlns:xlink="http://www.w3.org/1999/xlink" width="24" height="24" preserveAspectRatio="xMidYMid meet" viewBox="0 0 24 24" style="-ms-transform: rotate(360deg); -webkit-transform: rotate(360deg); transform: rotate(360deg);"><path d="M21.21 10.29l-1.73-1.72a4.37 4.37 0 0 0 .65-2.26a4.31 4.31 0 1 0-4.32 4.32a4.35 4.35 0 0 0 2.26-.63l1.72 1.73a1 1 0 0 0 1.42 0a1 1 0 0 0 0-1.44zM17.45 8a2.32 2.32 0 0 1-3.95-1.69a2.29 2.29 0 0 1 .68-1.63a2.32 2.32 0 0 1 3.27 0a2.31 2.31 0 0 1 0 3.27zm2.05 6a1 1 0 0 0-1.22.72A7 7 0 0 1 11.5 20H5.91l.64-.63a1 1 0 0 0 0-1.41a7 7 0 0 1-2-5a7 7 0 0 1 4.32-6.44a1 1 0 1 0-.74-1.86a9 9 0 0 0-3.66 14l-1.68 1.63a1 1 0 0 0-.21 1.09a1 1 0 0 0 .92.62h8a9 9 0 0 0 8.72-6.75A1 1 0 0 0 19.5 14z" fill="#626262"/><rect x="0" y="0" width="24" height="24" fill="rgba(0, 0, 0, 0)" /></svg>