<svg xmlns="http://www.w3.org/2000/svg" xmlns:xlink="http://www.w3.org/1999/xlink" width="24" height="24" preserveAspectRatio="xMidYMid meet" viewBox="0 0 24 24" style="-ms-transform: rotate(360deg); -webkit-transform: rotate(360deg); transform: rotate(360deg);"><path d="M10.66 6H17a1 1 0 0 1 1 1v6.34a1 1 0 1 0 2 0V7a3 3 0 0 0-3-3h-6.34a1 1 0 0 0 0 2zm11.05 14.29l-18-18a1 1 0 0 0-1.42 1.42l2 2A3 3 0 0 0 4 7v12a1 1 0 0 0 .62.92A.84.84 0 0 0 5 20a1 1 0 0 0 .71-.29L8.41 17h7.18l4.7 4.71a1 1 0 0 0 1.42 0a1 1 0 0 0 0-1.42zM8 15a1 1 0 0 0-.71.29L6 16.59V7.41L13.59 15z" fill="#626262"/><rect x="0" y="0" width="24" height="24" fill="rgba(0, 0, 0, 0)" /></svg>