<svg xmlns="http://www.w3.org/2000/svg" xmlns:xlink="http://www.w3.org/1999/xlink" width="24" height="24" preserveAspectRatio="xMidYMid meet" viewBox="0 0 24 24" style="-ms-transform: rotate(360deg); -webkit-transform: rotate(360deg); transform: rotate(360deg); vertical-align: -0.125em;"><path d="M17 7V3H7v4h10m-3 10a3 3 0 0 0 3-3a3 3 0 0 0-3-3a3 3 0 0 0-3 3a3 3 0 0 0 3 3m5-16l4 4v12a2 2 0 0 1-2 2H7a2 2 0 0 1-2-2V3a2 2 0 0 1 2-2h12M1 7h2v14h14v2H3a2 2 0 0 1-2-2V7z" fill="#626262"/><rect x="0" y="0" width="24" height="24" fill="rgba(0, 0, 0, 0)" /></svg>