<svg xmlns="http://www.w3.org/2000/svg" xmlns:xlink="http://www.w3.org/1999/xlink" width="24" height="24" preserveAspectRatio="xMidYMid meet" viewBox="0 0 24 24" style="-ms-transform: rotate(360deg); -webkit-transform: rotate(360deg); transform: rotate(360deg); vertical-align: -0.125em;"><path d="M7 22h2v2H7v-2m4 0h2v2h-2v-2m4 0h2v2h-2v-2m2-20H5a2 2 0 0 0-2 2v14a2 2 0 0 0 2 2h14c1.1 0 2-.9 2-2V6l-4-4m2 16H5V4h11.17L19 6.83V18m-7-7c-1.66 0-3 1.34-3 3s1.34 3 3 3s3-1.34 3-3s-1.34-3-3-3M6 5h9v4H6V5z" fill="#626262"/><rect x="0" y="0" width="24" height="24" fill="rgba(0, 0, 0, 0)" /></svg>