<svg xmlns="http://www.w3.org/2000/svg" xmlns:xlink="http://www.w3.org/1999/xlink" width="48" height="48" preserveAspectRatio="xMidYMid meet" viewBox="0 0 48 48" style="-ms-transform: rotate(360deg); -webkit-transform: rotate(360deg); transform: rotate(360deg);"><g fill="#D1C4E9"><path d="M38 7H10c-1.1 0-2 .9-2 2v6c0 1.1.9 2 2 2h28c1.1 0 2-.9 2-2V9c0-1.1-.9-2-2-2z"/><path d="M38 19H10c-1.1 0-2 .9-2 2v6c0 1.1.9 2 2 2h28c1.1 0 2-.9 2-2v-6c0-1.1-.9-2-2-2z"/><path d="M38 31H10c-1.1 0-2 .9-2 2v6c0 1.1.9 2 2 2h28c1.1 0 2-.9 2-2v-6c0-1.1-.9-2-2-2z"/></g><g fill="#2196F3"><path d="M31 30l7 5.6V24.4z"/><path d="M38 28c-.3 0-.7 0-1 .1v4c.3-.1.7-.1 1-.1c3.3 0 6 2.7 6 6s-2.7 6-6 6s-6-2.7-6-6c0-.3 0-.6.1-.9l-3.4-2.7c-.4 1.1-.7 2.3-.7 3.6c0 5.5 4.5 10 10 10s10-4.5 10-10s-4.5-10-10-10z"/></g><rect x="0" y="0" width="48" height="48" fill="rgba(0, 0, 0, 0)" /></svg>