<svg xmlns="http://www.w3.org/2000/svg" xmlns:xlink="http://www.w3.org/1999/xlink" width="24" height="24" preserveAspectRatio="xMidYMid meet" viewBox="0 0 24 24" style="-ms-transform: rotate(360deg); -webkit-transform: rotate(360deg); transform: rotate(360deg);"><path d="M19 2H5a3 3 0 0 0-3 3v10a3 3 0 0 0 3 3h3v2H5a1 1 0 0 0 0 2h14a1 1 0 0 0 0-2h-3v-2h3a3 3 0 0 0 3-3V5a3 3 0 0 0-3-3zm-5 18h-4v-2h4zm6-5a1 1 0 0 1-1 1H5a1 1 0 0 1-1-1v-1h16zm0-3H4V5a1 1 0 0 1 1-1h14a1 1 0 0 1 1 1z" fill="#626262"/><rect x="0" y="0" width="24" height="24" fill="rgba(0, 0, 0, 0)" /></svg>