<svg xmlns="http://www.w3.org/2000/svg" xmlns:xlink="http://www.w3.org/1999/xlink" width="24" height="24" preserveAspectRatio="xMidYMid meet" viewBox="0 0 24 24" style="-ms-transform: rotate(360deg); -webkit-transform: rotate(360deg); transform: rotate(360deg);"><path d="M4.5 10H10a3 3 0 0 0 1.07-5.8a4 4 0 0 0-7.48 1A2.5 2.5 0 0 0 4.5 10zm0-3a1 1 0 0 0 1-1a2 2 0 0 1 3.89-.64a1 1 0 0 0 .78.66A1 1 0 0 1 11 7a1 1 0 0 1-1 1H4.5a.5.5 0 0 1 0-1zM19 2h-5a1 1 0 0 0 0 2h5a1 1 0 0 1 1 1v7H3a1 1 0 0 0-1 1v2a3 3 0 0 0 3 3h3v2H5a1 1 0 0 0 0 2h14a1 1 0 0 0 0-2h-3v-2h3a3 3 0 0 0 3-3V5a3 3 0 0 0-3-3zm-5 18h-4v-2h4zm6-5a1 1 0 0 1-1 1H5a1 1 0 0 1-1-1v-1h16z" fill="#626262"/><rect x="0" y="0" width="24" height="24" fill="rgba(0, 0, 0, 0)" /></svg>