<svg xmlns="http://www.w3.org/2000/svg" xmlns:xlink="http://www.w3.org/1999/xlink" width="48" height="48" preserveAspectRatio="xMidYMid meet" viewBox="0 0 48 48" style="-ms-transform: rotate(360deg); -webkit-transform: rotate(360deg); transform: rotate(360deg);"><path fill="#FBE9E7" d="M9 4h30v40H9z"/><g fill="#F4511E"><path d="M30 37h2.8l-5-5l-2.8 2.8l5 5z"/><path d="M18 37h-2.8l5-5l2.8 2.8l-5 5z"/></g><path fill="#FF8A65" d="M15 13h18v4H15z"/><path fill="#FF8A65" d="M15 20h18v2H15z"/><path fill="#FF8A65" d="M24 26c-2.8 0-5 2.2-5 5s2.2 5 5 5s5-2.2 5-5s-2.2-5-5-5zm0 8c-1.7 0-3-1.3-3-3s1.3-3 3-3s3 1.3 3 3s-1.3 3-3 3z"/><path fill="#FF8A65" d="M8 3v42h32V3H8zm30 37c-1.7 0-3 1.3-3 3H13c0-1.7-1.3-3-3-3V8c1.7 0 3-1.3 3-3h22c0 1.7 1.3 3 3 3v32z"/><rect x="0" y="0" width="48" height="48" fill="rgba(0, 0, 0, 0)" /></svg>