<svg xmlns="http://www.w3.org/2000/svg" xmlns:xlink="http://www.w3.org/1999/xlink" width="24" height="24" preserveAspectRatio="xMidYMid meet" viewBox="0 0 24 24" style="-ms-transform: rotate(360deg); -webkit-transform: rotate(360deg); transform: rotate(360deg);"><path d="M21.12 9.88l-7-7a3.08 3.08 0 0 0-4.24 0l-7 7a3 3 0 0 0 0 4.24l7 7a3 3 0 0 0 4.24 0l7-7a3 3 0 0 0 0-4.24zm-1.41 2.83l-7 7a1 1 0 0 1-1.42 0l-7-7a1 1 0 0 1 0-1.42l7-7a1 1 0 0 1 1.42 0l7 7a1 1 0 0 1 0 1.42zm-5.5-3.42a1 1 0 0 0-1.42 1.42l.3.29H9.5a1 1 0 0 0-1 1v2a1 1 0 0 0 2 0v-1h2.59l-.3.29a1 1 0 0 0 0 1.42a1 1 0 0 0 1.42 0l2-2a1 1 0 0 0 0-1.42z" fill="#626262"/><rect x="0" y="0" width="24" height="24" fill="rgba(0, 0, 0, 0)" /></svg>