<svg xmlns="http://www.w3.org/2000/svg" xmlns:xlink="http://www.w3.org/1999/xlink" width="24" height="24" preserveAspectRatio="xMidYMid meet" viewBox="0 0 24 24" style="-ms-transform: rotate(360deg); -webkit-transform: rotate(360deg); transform: rotate(360deg);"><path d="M9.71 10.21L12 7.91l2.29 2.3a1 1 0 0 0 1.42 0a1 1 0 0 0 0-1.42l-3-3a1 1 0 0 0-1.42 0l-3 3a1 1 0 0 0 1.42 1.42zm4.58 4.58L12 17.09l-2.29-2.3a1 1 0 0 0-1.42 1.42l3 3a1 1 0 0 0 1.42 0l3-3a1 1 0 0 0-1.42-1.42z" fill="#626262"/><rect x="0" y="0" width="24" height="24" fill="rgba(0, 0, 0, 0)" /></svg>