<svg xmlns="http://www.w3.org/2000/svg" xmlns:xlink="http://www.w3.org/1999/xlink" width="24" height="24" preserveAspectRatio="xMidYMid meet" viewBox="0 0 24 24" style="-ms-transform: rotate(360deg); -webkit-transform: rotate(360deg); transform: rotate(360deg);"><path d="M12 2C6.5 2 2 6.5 2 12s4.5 10 10 10s10-4.5 10-10S17.5 2 12 2zM7.5 13.5c-.8 0-1.5-.7-1.5-1.5s.7-1.5 1.5-1.5S9 11.2 9 12s-.7 1.5-1.5 1.5zm4.5 0c-.8 0-1.5-.7-1.5-1.5s.7-1.5 1.5-1.5s1.5.7 1.5 1.5s-.7 1.5-1.5 1.5zm4.5 0c-.8 0-1.5-.7-1.5-1.5s.7-1.5 1.5-1.5s1.5.7 1.5 1.5s-.7 1.5-1.5 1.5z" fill="#626262"/><rect x="0" y="0" width="24" height="24" fill="rgba(0, 0, 0, 0)" /></svg>