<svg xmlns="http://www.w3.org/2000/svg" xmlns:xlink="http://www.w3.org/1999/xlink" width="24" height="24" preserveAspectRatio="xMidYMid meet" viewBox="0 0 24 24" style="-ms-transform: rotate(360deg); -webkit-transform: rotate(360deg); transform: rotate(360deg);"><path d="M20.572 5.083l-7.896 7.037a1 1 0 0 1-1.331 0L3.416 5.087A2 2 0 0 1 4 5h16a2 2 0 0 1 .572.083zm1.356 1.385c.047.17.072.348.072.532v10a2 2 0 0 1-2 2H4a2 2 0 0 1-2-2V7a2 2 0 0 1 .072-.534l7.942 7.148a3 3 0 0 0 3.992 0l7.922-7.146z" fill="#626262"/><rect x="0" y="0" width="24" height="24" fill="rgba(0, 0, 0, 0)" /></svg>