<svg xmlns="http://www.w3.org/2000/svg" xmlns:xlink="http://www.w3.org/1999/xlink" width="24" height="24" preserveAspectRatio="xMidYMid meet" viewBox="0 0 24 24" style="-ms-transform: rotate(360deg); -webkit-transform: rotate(360deg); transform: rotate(360deg);"><path d="M4.328 8.868l7.017 6.253a1 1 0 0 0 1.33 0l7.009-6.246l-7.137-4.665a1 1 0 0 0-1.094 0L4.328 8.868zM20 9.082v2.19l-5.994 5.342a3 3 0 0 1-3.992 0L4 11.254V9.083V20h16V9.082zM2.906 7.408l7.453-4.872a3 3 0 0 1 3.282 0l7.453 4.872A2 2 0 0 1 22 9.082V20a2 2 0 0 1-2 2H4a2 2 0 0 1-2-2V9.082a2 2 0 0 1 .906-1.674z" fill="#626262"/><rect x="0" y="0" width="24" height="24" fill="rgba(0, 0, 0, 0)" /></svg>