<svg xmlns="http://www.w3.org/2000/svg" xmlns:xlink="http://www.w3.org/1999/xlink" width="24" height="24" preserveAspectRatio="xMidYMid meet" viewBox="0 0 24 24" style="-ms-transform: rotate(360deg); -webkit-transform: rotate(360deg); transform: rotate(360deg);"><path d="M21.25 7.52l-8.574 7.6a1 1 0 0 1-1.331 0L2.703 7.56c.064-.055.131-.105.203-.152l7.453-4.872a3 3 0 0 1 3.282 0l7.453 4.872c.054.035.106.073.156.113zM22 9.69V20a2 2 0 0 1-2 2H4a2 2 0 0 1-2-2V9.698l8.014 6.916a3 3 0 0 0 3.992 0L22 9.69z" fill="#626262"/><rect x="0" y="0" width="24" height="24" fill="rgba(0, 0, 0, 0)" /></svg>