<svg xmlns="http://www.w3.org/2000/svg" xmlns:xlink="http://www.w3.org/1999/xlink" width="24" height="24" preserveAspectRatio="xMidYMid meet" viewBox="0 0 24 24" style="-ms-transform: rotate(360deg); -webkit-transform: rotate(360deg); transform: rotate(360deg);"><path d="M17.5 13.26a5 5 0 1 0-3.5-1.47a5 5 0 0 0 3.5 1.47zm2.12-2.88a3 3 0 0 1-3.4.58l4-4a3 3 0 0 1-.6 3.42zm-4.24-4.24a3 3 0 0 1 2.12-.88a3 3 0 0 1 1.28.3l-4 4a3 3 0 0 1 .6-3.42zm5.12 8.12a1 1 0 0 0-1 1v4a1 1 0 0 1-1 1h-14a1 1 0 0 1-1-1V9.67l5.88 5.88a3 3 0 0 0 2.11.88a3 3 0 0 0 2.16-.91a1 1 0 0 0 0-1.39a1 1 0 0 0-1.43 0a1 1 0 0 1-1.4 0L4.91 8.26H9.5a1 1 0 0 0 0-2h-5a3 3 0 0 0-3 3v10a3 3 0 0 0 3 3h14a3 3 0 0 0 3-3v-4a1 1 0 0 0-1-1z" fill="#626262"/><rect x="0" y="0" width="24" height="24" fill="rgba(0, 0, 0, 0)" /></svg>