<svg xmlns="http://www.w3.org/2000/svg" xmlns:xlink="http://www.w3.org/1999/xlink" width="24" height="24" preserveAspectRatio="xMidYMid meet" viewBox="0 0 24 24" style="-ms-transform: rotate(360deg); -webkit-transform: rotate(360deg); transform: rotate(360deg);"><path d="M12 7a1 1 0 0 0-1 1v4a1 1 0 0 0 2 0V8a1 1 0 0 0-1-1zm.92 8.62a.76.76 0 0 0-.09-.18l-.12-.15a1 1 0 0 0-1.09-.21a1.15 1.15 0 0 0-.33.21A1 1 0 0 0 11 16a1 1 0 0 0 .08.38a.9.9 0 0 0 .54.54a.94.94 0 0 0 .76 0a.9.9 0 0 0 .54-.54A1 1 0 0 0 13 16a1.36 1.36 0 0 0 0-.2a.64.64 0 0 0-.08-.18zM12 2a10 10 0 1 0 10 10A10 10 0 0 0 12 2zm0 18a8 8 0 1 1 8-8a8 8 0 0 1-8 8z" fill="#626262"/><rect x="0" y="0" width="24" height="24" fill="rgba(0, 0, 0, 0)" /></svg>