<svg xmlns="http://www.w3.org/2000/svg" xmlns:xlink="http://www.w3.org/1999/xlink" width="24" height="24" preserveAspectRatio="xMidYMid meet" viewBox="0 0 24 24" style="-ms-transform: rotate(360deg); -webkit-transform: rotate(360deg); transform: rotate(360deg);"><path d="M12 2a9.65 9.65 0 0 0-10 9.7a9.51 9.51 0 0 0 3.14 7.18a.81.81 0 0 1 .27.56v1.78a.81.81 0 0 0 1.13.71l2-.87a.75.75 0 0 1 .53 0a11 11 0 0 0 2.9.38A9.7 9.7 0 1 0 12 2zm6 7.46l-2.93 4.66a1.5 1.5 0 0 1-2.17.4l-2.34-1.75a.6.6 0 0 0-.72 0l-3.16 2.4a.47.47 0 0 1-.68-.63l2.93-4.66a1.5 1.5 0 0 1 2.17-.4l2.34 1.75a.6.6 0 0 0 .72 0l3.16-2.4a.47.47 0 0 1 .68.63z" fill="#626262"/><rect x="0" y="0" width="24" height="24" fill="rgba(0, 0, 0, 0)" /></svg>