<svg xmlns="http://www.w3.org/2000/svg" xmlns:xlink="http://www.w3.org/1999/xlink" width="24" height="24" preserveAspectRatio="xMidYMid meet" viewBox="0 0 24 24" style="-ms-transform: rotate(360deg); -webkit-transform: rotate(360deg); transform: rotate(360deg);"><path d="M20.71 16.71l-2.42-2.42a1 1 0 0 0-1.42 0l-3.58 3.58a1 1 0 0 0-.29.71V21a1 1 0 0 0 1 1h2.42a1 1 0 0 0 .71-.29l3.58-3.58a1 1 0 0 0 0-1.42zM16 20h-1v-1l2.58-2.58l1 1zm-6 0H6a1 1 0 0 1-1-1V5a1 1 0 0 1 1-1h5v3a3 3 0 0 0 3 3h3v1a1 1 0 0 0 2 0V9v-.06a1.31 1.31 0 0 0-.06-.27v-.09a1.07 1.07 0 0 0-.19-.28l-6-6a1.07 1.07 0 0 0-.28-.19a.32.32 0 0 0-.09 0L12.06 2H6a3 3 0 0 0-3 3v14a3 3 0 0 0 3 3h4a1 1 0 0 0 0-2zm3-14.59L15.59 8H14a1 1 0 0 1-1-1zM8 14h6a1 1 0 0 0 0-2H8a1 1 0 0 0 0 2zm0-4h1a1 1 0 0 0 0-2H8a1 1 0 0 0 0 2zm2 6H8a1 1 0 0 0 0 2h2a1 1 0 0 0 0-2z" fill="#626262"/><rect x="0" y="0" width="24" height="24" fill="rgba(0, 0, 0, 0)" /></svg>