<svg xmlns="http://www.w3.org/2000/svg" xmlns:xlink="http://www.w3.org/1999/xlink" width="24" height="24" preserveAspectRatio="xMidYMid meet" viewBox="0 0 24 24" style="-ms-transform: rotate(360deg); -webkit-transform: rotate(360deg); transform: rotate(360deg);"><path d="M14.71 12.29a1 1 0 0 0-1.42 0L12 13.59l-1.29-1.3a1 1 0 0 0-1.42 1.42l1.3 1.29l-1.3 1.29a1 1 0 0 0 0 1.42a1 1 0 0 0 1.42 0l1.29-1.3l1.29 1.3a1 1 0 0 0 1.42 0a1 1 0 0 0 0-1.42L13.41 15l1.3-1.29a1 1 0 0 0 0-1.42zM20 8.94a1.31 1.31 0 0 0-.06-.27v-.09a1.07 1.07 0 0 0-.19-.28l-6-6a1.07 1.07 0 0 0-.28-.19h-.1a1.1 1.1 0 0 0-.31-.11H7a3 3 0 0 0-3 3v14a3 3 0 0 0 3 3h10a3 3 0 0 0 3-3V9v-.06zm-6-3.53L16.59 8H15a1 1 0 0 1-1-1zM18 19a1 1 0 0 1-1 1H7a1 1 0 0 1-1-1V5a1 1 0 0 1 1-1h5v3a3 3 0 0 0 3 3h3z" fill="#626262"/><rect x="0" y="0" width="24" height="24" fill="rgba(0, 0, 0, 0)" /></svg>