<svg xmlns="http://www.w3.org/2000/svg" xmlns:xlink="http://www.w3.org/1999/xlink" width="24" height="24" preserveAspectRatio="xMidYMid meet" viewBox="0 0 24 24" style="-ms-transform: rotate(360deg); -webkit-transform: rotate(360deg); transform: rotate(360deg);"><path d="M14 12H8a1 1 0 0 0 0 2h6a1 1 0 0 0 0-2zm5.41 7l1.3-1.29a1 1 0 0 0-1.42-1.42L18 17.59l-1.29-1.3a1 1 0 0 0-1.42 1.42l1.3 1.29l-1.3 1.29a1 1 0 0 0 0 1.42a1 1 0 0 0 1.42 0l1.29-1.3l1.29 1.3a1 1 0 0 0 1.42 0a1 1 0 0 0 0-1.42zM12 20H6a1 1 0 0 1-1-1V5a1 1 0 0 1 1-1h5v3a3 3 0 0 0 3 3h3v3a1 1 0 0 0 2 0V9v-.06a1.31 1.31 0 0 0-.06-.27v-.09a1.07 1.07 0 0 0-.19-.28l-6-6a1.07 1.07 0 0 0-.28-.19a.29.29 0 0 0-.1 0a1.1 1.1 0 0 0-.31-.11H6a3 3 0 0 0-3 3v14a3 3 0 0 0 3 3h6a1 1 0 0 0 0-2zm1-14.59L15.59 8H14a1 1 0 0 1-1-1zM8 8a1 1 0 0 0 0 2h1a1 1 0 0 0 0-2zm4 8H8a1 1 0 0 0 0 2h4a1 1 0 0 0 0-2z" fill="#626262"/><rect x="0" y="0" width="24" height="24" fill="rgba(0, 0, 0, 0)" /></svg>