<svg xmlns="http://www.w3.org/2000/svg" xmlns:xlink="http://www.w3.org/1999/xlink" width="24" height="24" preserveAspectRatio="xMidYMid meet" viewBox="0 0 24 24" style="-ms-transform: rotate(360deg); -webkit-transform: rotate(360deg); transform: rotate(360deg);"><path d="M21.71 20.29l-18-18a1 1 0 0 0-1.42 1.42L4 5.41V19a3 3 0 0 0 3 3h10a3 3 0 0 0 2.39-1.2l.9.91a1 1 0 0 0 1.42 0a1 1 0 0 0 0-1.42zM17 20H7a1 1 0 0 1-1-1V7.41l11.93 11.93A1 1 0 0 1 17 20zM8.66 4H12v3a3 3 0 0 0 3 3h3v3.34a1 1 0 1 0 2 0V9v-.06a1.31 1.31 0 0 0-.06-.27v-.09a1.07 1.07 0 0 0-.19-.28l-6-6a1.07 1.07 0 0 0-.28-.19h-.09L13.06 2h-4.4a1 1 0 0 0 0 2zM14 5.41L16.59 8H15a1 1 0 0 1-1-1z" fill="#626262"/><rect x="0" y="0" width="24" height="24" fill="rgba(0, 0, 0, 0)" /></svg>