<svg xmlns="http://www.w3.org/2000/svg" xmlns:xlink="http://www.w3.org/1999/xlink" width="24" height="24" preserveAspectRatio="xMidYMid meet" viewBox="0 0 24 24" style="-ms-transform: rotate(360deg); -webkit-transform: rotate(360deg); transform: rotate(360deg);"><path d="M11.5 20h-6a1 1 0 0 1-1-1V5a1 1 0 0 1 1-1h5v3a3 3 0 0 0 3 3h3v5a1 1 0 0 0 2 0V9v-.06a1.31 1.31 0 0 0-.06-.27v-.09a1.07 1.07 0 0 0-.19-.28l-6-6a1.07 1.07 0 0 0-.28-.19a.29.29 0 0 0-.1 0a1.1 1.1 0 0 0-.31-.11H5.5a3 3 0 0 0-3 3v14a3 3 0 0 0 3 3h6a1 1 0 0 0 0-2zm1-14.59L15.09 8H13.5a1 1 0 0 1-1-1zM7.5 14h6a1 1 0 0 0 0-2h-6a1 1 0 0 0 0 2zm4 2h-4a1 1 0 0 0 0 2h4a1 1 0 0 0 0-2zm-4-6h1a1 1 0 0 0 0-2h-1a1 1 0 0 0 0 2zm13.71 6.29a1 1 0 0 0-1.42 0l-3.29 3.3l-1.29-1.3a1 1 0 0 0-1.42 1.42l2 2a1 1 0 0 0 1.42 0l4-4a1 1 0 0 0 0-1.42z" fill="#626262"/><rect x="0" y="0" width="24" height="24" fill="rgba(0, 0, 0, 0)" /></svg>