<svg xmlns="http://www.w3.org/2000/svg" xmlns:xlink="http://www.w3.org/1999/xlink" width="48" height="48" preserveAspectRatio="xMidYMid meet" viewBox="0 0 48 48" style="-ms-transform: rotate(360deg); -webkit-transform: rotate(360deg); transform: rotate(360deg);"><path fill="#263238" d="M12 44h4v2h-4z"/><path fill="#263238" d="M32 44h4v2h-4z"/><path fill="#607D8B" d="M8 41V7c0-2.2 1.8-4 4-4h24c2.2 0 4 1.8 4 4v34c0 2.2-1.8 4-4 4H12c-2.2 0-4-1.8-4-4z"/><path fill="#B0BEC5" d="M12 17V8c0-.6.4-1 1-1h22c.6 0 1 .4 1 1v9H12z"/><path fill="#B0BEC5" d="M12 19h24v10H12z"/><path fill="#B0BEC5" d="M12 40v-9h24v9c0 .6-.4 1-1 1H13c-.6 0-1-.4-1-1z"/><path fill="#546E7A" d="M20 11h8v2h-8z"/><path fill="#546E7A" d="M20 23h8v2h-8z"/><path fill="#546E7A" d="M20 35h8v2h-8z"/><rect x="0" y="0" width="48" height="48" fill="rgba(0, 0, 0, 0)" /></svg>