<svg xmlns="http://www.w3.org/2000/svg" xmlns:xlink="http://www.w3.org/1999/xlink" width="24" height="24" preserveAspectRatio="xMidYMid meet" viewBox="0 0 24 24" style="-ms-transform: rotate(360deg); -webkit-transform: rotate(360deg); transform: rotate(360deg);"><path d="M21 2a1 1 0 0 0-1 1v2h-2V3a1 1 0 0 0-2 0v1H8V3a1 1 0 0 0-2 0v2H4V3a1 1 0 0 0-2 0v18a1 1 0 0 0 2 0v-2h2v2a1 1 0 0 0 2 0v-1h8v1a1 1 0 0 0 2 0v-2h2v2a1 1 0 0 0 2 0V3a1 1 0 0 0-1-1zM6 17H4v-2h2zm0-4H4v-2h2zm0-4H4V7h2zm10 9H8v-5h8zm0-7H8V6h8zm4 6h-2v-2h2zm0-4h-2v-2h2zm0-4h-2V7h2z" fill="#626262"/><rect x="0" y="0" width="24" height="24" fill="rgba(0, 0, 0, 0)" /></svg>