<svg xmlns="http://www.w3.org/2000/svg" xmlns:xlink="http://www.w3.org/1999/xlink" width="48" height="48" preserveAspectRatio="xMidYMid meet" viewBox="0 0 48 48" style="-ms-transform: rotate(360deg); -webkit-transform: rotate(360deg); transform: rotate(360deg);"><path fill="#90CAF9" d="M33 42H5V4h19l9 9z"/><path fill="#E1F5FE" d="M31.5 14H23V5.5z"/><path fill="#616161" d="M34.505 37.58l1.98-1.98l8.483 8.485l-1.98 1.98z"/><circle fill="#616161" cx="28" cy="29" r="11"/><circle fill="#90CAF9" cx="28" cy="29" r="9"/><path fill="#37474F" d="M36.849 39.88l1.98-1.98l6.15 6.151l-1.98 1.98z"/><g fill="#1976D2"><path d="M30 31h-9.7c.4 1.6 1.3 3 2.5 4H30v-4z"/><path d="M20.3 27H30v-4h-7.3c-1.2 1-2 2.4-2.4 4z"/><path d="M20.1 20H11v2h7.3c.5-.7 1.1-1.4 1.8-2z"/><path d="M17.1 24H11v2h5.4c.2-.7.4-1.4.7-2z"/><path d="M16 29c0-.3 0-.7.1-1H11v2h5.1c-.1-.3-.1-.7-.1-1z"/><path d="M16.4 32H11v2h6.1c-.3-.6-.5-1.3-.7-2z"/></g><rect x="0" y="0" width="48" height="48" fill="rgba(0, 0, 0, 0)" /></svg>