<svg xmlns="http://www.w3.org/2000/svg" xmlns:xlink="http://www.w3.org/1999/xlink" width="1024" height="1024" preserveAspectRatio="xMidYMid meet" viewBox="0 0 1024 1024" style="-ms-transform: rotate(360deg); -webkit-transform: rotate(360deg); transform: rotate(360deg);"><path d="M184 232h368v336H184z" fill-opacity=".15" fill="#626262"/><path d="M624 632c0 4.4-3.6 8-8 8H504v73h336V377H624v255z" fill-opacity=".15" fill="#626262"/><path d="M880 305H624V192c0-17.7-14.3-32-32-32H184v-40c0-4.4-3.6-8-8-8h-56c-4.4 0-8 3.6-8 8v784c0 4.4 3.6 8 8 8h56c4.4 0 8-3.6 8-8V640h248v113c0 17.7 14.3 32 32 32h416c17.7 0 32-14.3 32-32V337c0-17.7-14.3-32-32-32zM184 568V232h368v336H184zm656 145H504v-73h112c4.4 0 8-3.6 8-8V377h216v336z" fill="#626262"/><rect x="0" y="0" width="1024" height="1024" fill="rgba(0, 0, 0, 0)" /></svg>