<svg xmlns="http://www.w3.org/2000/svg" xmlns:xlink="http://www.w3.org/1999/xlink" width="24" height="24" preserveAspectRatio="xMidYMid meet" viewBox="0 0 24 24" style="-ms-transform: rotate(360deg); -webkit-transform: rotate(360deg); transform: rotate(360deg);"><path d="M8 2H3a1 1 0 0 0-1 1v5a1 1 0 0 0 2 0V4h4a1 1 0 0 0 0-2zm0 18H4v-4a1 1 0 0 0-2 0v5a1 1 0 0 0 1 1h5a1 1 0 0 0 0-2zM21 2h-5a1 1 0 0 0 0 2h4v4a1 1 0 0 0 2 0V3a1 1 0 0 0-1-1zm0 13a1 1 0 0 0-1 1v4h-4a1 1 0 0 0 0 2h5a1 1 0 0 0 1-1v-5a1 1 0 0 0-1-1z" fill="#626262"/><rect x="0" y="0" width="24" height="24" fill="rgba(0, 0, 0, 0)" /></svg>