<svg xmlns="http://www.w3.org/2000/svg" xmlns:xlink="http://www.w3.org/1999/xlink" width="24" height="24" preserveAspectRatio="xMidYMid meet" viewBox="0 0 24 24" style="-ms-transform: rotate(360deg); -webkit-transform: rotate(360deg); transform: rotate(360deg);"><path d="M12.57 16.3a.64.64 0 0 0-.15-.13l-.17-.09l-.19-.08a1 1 0 0 0-.9.28a1 1 0 0 0-.22.32a1 1 0 0 0-.07.39a1 1 0 0 0 .29.7a1 1 0 0 0 .32.22a1 1 0 0 0 .39.07a1 1 0 0 0 .38-.07a1 1 0 0 0 .32-.22a1 1 0 0 0 .3-.7a1 1 0 0 0-.08-.39a.87.87 0 0 0-.22-.3zm-.7-7.3a3 3 0 0 0-2.6 1.5a1 1 0 1 0 1.73 1a1 1 0 0 1 1.87.5a1 1 0 0 1-1 1a1 1 0 1 0 0 2a3 3 0 0 0 0-6zM19 5.5h-6.28l-.32-1a3 3 0 0 0-2.84-2H5a3 3 0 0 0-3 3v13a3 3 0 0 0 3 3h14a3 3 0 0 0 3-3v-10a3 3 0 0 0-3-3zm1 13a1 1 0 0 1-1 1H5a1 1 0 0 1-1-1v-13a1 1 0 0 1 1-1h4.56a1 1 0 0 1 .95.68l.54 1.64a1 1 0 0 0 .95.68h7a1 1 0 0 1 1 1z" fill="#626262"/><rect x="0" y="0" width="24" height="24" fill="rgba(0, 0, 0, 0)" /></svg>