<svg xmlns="http://www.w3.org/2000/svg" xmlns:xlink="http://www.w3.org/1999/xlink" width="24" height="24" preserveAspectRatio="xMidYMid meet" viewBox="0 0 24 24" style="-ms-transform: rotate(360deg); -webkit-transform: rotate(360deg); transform: rotate(360deg);"><path d="M3.195 2l1.602 17.994L11.99 22l7.212-2.013L20.805 2zm14.281 4.123l-.534 5.994l.002.033l-.002.074l-.38 4.19l-.041.373L12 18.037l-.004.004l-4.512-1.258l-.306-3.465H9.39l.157 1.762l2.453.665H12l2.461-.674l.26-2.869H9.577l-.044-.485l-.101-1.136l-.052-.61h5.538l.202-2.232H6.682l-.044-.485l-.1-1.137l-.053-.61h11.044zm0 0" fill="#626262"/><rect x="0" y="0" width="24" height="24" fill="rgba(0, 0, 0, 0)" /></svg>