<svg xmlns="http://www.w3.org/2000/svg" xmlns:xlink="http://www.w3.org/1999/xlink" width="24" height="24" preserveAspectRatio="xMidYMid meet" viewBox="0 0 24 24" style="-ms-transform: rotate(360deg); -webkit-transform: rotate(360deg); transform: rotate(360deg);"><path d="M7.952 8h6.986l-.177 2h-4.77a1 1 0 0 0 0 2h4.593l-.264 2.977l-2.329.528l-2.328-.529l-.096-1.064a1 1 0 1 0-1.992.177l.16 1.79a1.001 1.001 0 0 0 .775.887l3.26.74a1.019 1.019 0 0 0 .443 0l3.26-.74a1.001 1.001 0 0 0 .775-.888l.432-4.868l.002-.01l-.001-.004l.346-3.908A1.001 1.001 0 0 0 16.031 6H7.952a1 1 0 0 0 0 2zm12.702-5.674A1.002 1.002 0 0 0 19.916 2H4.066a1 1 0 0 0-.996 1.09l1.444 16.194a.999.999 0 0 0 .727.874l6.473 1.805a.99.99 0 0 0 .537 0l6.49-1.812a.999.999 0 0 0 .728-.874l1.443-16.188a1.002 1.002 0 0 0-.258-.763zM17.538 18.41l-5.556 1.551l-5.538-1.545L5.16 4h13.664z" fill="#626262"/><rect x="0" y="0" width="24" height="24" fill="rgba(0, 0, 0, 0)" /></svg>