<svg xmlns="http://www.w3.org/2000/svg" xmlns:xlink="http://www.w3.org/1999/xlink" width="20" height="20" preserveAspectRatio="xMidYMid meet" viewBox="0 0 20 20" style="-ms-transform: rotate(360deg); -webkit-transform: rotate(360deg); transform: rotate(360deg);"><path d="M18 3H2a1 1 0 0 0-1 1v12a1 1 0 0 0 1 1h16a1 1 0 0 0 1-1V4a1 1 0 0 0-1-1zm-4.75 3.5a1.25 1.25 0 1 1 0 2.5a1.25 1.25 0 0 1 0-2.5zM4 14l3.314-7.619l3.769 6.102l3.231-1.605L16 14H4z" fill="#626262"/><rect x="0" y="0" width="20" height="20" fill="rgba(0, 0, 0, 0)" /></svg>