<svg xmlns="http://www.w3.org/2000/svg" xmlns:xlink="http://www.w3.org/1999/xlink" width="24" height="24" preserveAspectRatio="xMidYMid meet" viewBox="0 0 24 24" style="-ms-transform: rotate(360deg); -webkit-transform: rotate(360deg); transform: rotate(360deg);"><path d="M21.71 20.29l-.93-.93l-.09-.1l-.06-.07l-.5-.5l-.13-.07l-5.18-5.2l-.09-.08l-3.2-3.21l-.1-.13l-7.72-7.71a1 1 0 0 0-1.42 1.42l1 1A3 3 0 0 0 3 6v12a3 3 0 0 0 3 3h12a2.9 2.9 0 0 0 1.27-.31h.05l.95 1a1 1 0 0 0 1.42 0a1 1 0 0 0 .02-1.4zM5 6.41l3.24 3.24a2.84 2.84 0 0 0-.67.48L5 12.71zM6 19a1 1 0 0 1-1-1v-2.46l4-4a.81.81 0 0 1 1.1 0L17.59 19zM9.66 5H18a1 1 0 0 1 1 1v5.94a1 1 0 1 0-1.42 1.42l1.74 1.74a1 1 0 0 0 1.42 0a1 1 0 0 0 .29-.72V6a3 3 0 0 0-3-3H9.66a1 1 0 0 0 0 2z" fill="#626262"/><rect x="0" y="0" width="24" height="24" fill="rgba(0, 0, 0, 0)" /></svg>