<svg xmlns="http://www.w3.org/2000/svg" xmlns:xlink="http://www.w3.org/1999/xlink" width="24" height="24" preserveAspectRatio="xMidYMid meet" viewBox="0 0 24 24" style="-ms-transform: rotate(360deg); -webkit-transform: rotate(360deg); transform: rotate(360deg);"><path d="M21.71 11.29l-5-5A1 1 0 0 0 16 6H5a3 3 0 0 0-3 3v6a3 3 0 0 0 3 3h11a1 1 0 0 0 .71-.29l5-5a1 1 0 0 0 0-1.42zM15.59 16H5a1 1 0 0 1-1-1V9a1 1 0 0 1 1-1h10.59l4 4z" fill="#626262"/><rect x="0" y="0" width="24" height="24" fill="rgba(0, 0, 0, 0)" /></svg>