<svg xmlns="http://www.w3.org/2000/svg" xmlns:xlink="http://www.w3.org/1999/xlink" width="24" height="24" preserveAspectRatio="xMidYMid meet" viewBox="0 0 24 24" style="-ms-transform: rotate(360deg); -webkit-transform: rotate(360deg); transform: rotate(360deg);"><path d="M2.5 10.56l9 5.2a1 1 0 0 0 1 0l9-5.2a1 1 0 0 0 0-1.73l-9-5.2a1 1 0 0 0-1 0l-9 5.2a1 1 0 0 0 0 1.73zM12 5.65l7 4l-7 4.05l-7-4.01zm8.5 7.79L12 18.35l-8.5-4.91a1 1 0 0 0-1.37.36a1 1 0 0 0 .37 1.37l9 5.2a1 1 0 0 0 1 0l9-5.2a1 1 0 0 0 .37-1.37a1 1 0 0 0-1.37-.36z" fill="#626262"/><rect x="0" y="0" width="24" height="24" fill="rgba(0, 0, 0, 0)" /></svg>