<svg xmlns="http://www.w3.org/2000/svg" xmlns:xlink="http://www.w3.org/1999/xlink" width="24" height="24" preserveAspectRatio="xMidYMid meet" viewBox="0 0 24 24" style="-ms-transform: rotate(360deg); -webkit-transform: rotate(360deg); transform: rotate(360deg);"><path d="M12.11 15.39l-3.88 3.88a2.52 2.52 0 0 1-3.5 0a2.47 2.47 0 0 1 0-3.5l3.88-3.88a1 1 0 1 0-1.42-1.42l-3.88 3.89a4.48 4.48 0 0 0 6.33 6.33l3.89-3.88a1 1 0 0 0-1.42-1.42zm8.58-12.08a4.49 4.49 0 0 0-6.33 0l-3.89 3.88a1 1 0 1 0 1.42 1.42l3.88-3.88a2.52 2.52 0 0 1 3.5 0a2.47 2.47 0 0 1 0 3.5l-3.88 3.88a1 1 0 0 0 0 1.42a1 1 0 0 0 1.42 0l3.88-3.89a4.49 4.49 0 0 0 0-6.33zM8.83 15.17a1 1 0 0 0 .71.29a1 1 0 0 0 .71-.29l4.92-4.92a1 1 0 1 0-1.42-1.42l-4.92 4.92a1 1 0 0 0 0 1.42z" fill="#626262"/><rect x="0" y="0" width="24" height="24" fill="rgba(0, 0, 0, 0)" /></svg>