<svg xmlns="http://www.w3.org/2000/svg" xmlns:xlink="http://www.w3.org/1999/xlink" width="24" height="24" preserveAspectRatio="xMidYMid meet" viewBox="0 0 24 24" style="-ms-transform: rotate(360deg); -webkit-transform: rotate(360deg); transform: rotate(360deg);"><path d="M10.84 5.38a2 2 0 0 1 2.57.21A2 2 0 0 1 14 7v3a1 1 0 0 0 1 1h1a1 1 0 0 1 1 1v.34a1 1 0 0 0 2 0V12a3 3 0 0 0-3-3V7a4 4 0 0 0-1.17-2.83a4.06 4.06 0 0 0-5.19-.39a1 1 0 1 0 1.2 1.6zm10.87 14.91l-18-18a1 1 0 0 0-1.42 1.42L7.62 9A3 3 0 0 0 5 12v6a3 3 0 0 0 3 3h8a3 3 0 0 0 2.39-1.2l1.9 1.91a1 1 0 0 0 1.42 0a1 1 0 0 0 0-1.42zM16 19H8a1 1 0 0 1-1-1v-6a1 1 0 0 1 1-1h1.59l2.07 2.07A1 1 0 0 0 11 14v2a1 1 0 0 0 2 0v-1.59l3.93 3.93A1 1 0 0 1 16 19z" fill="#626262"/><rect x="0" y="0" width="24" height="24" fill="rgba(0, 0, 0, 0)" /></svg>