<svg height="512pt" viewBox="0 0 512.00056 512" width="512pt" xmlns="http://www.w3.org/2000/svg"><path d="m223.417969 352.1875-44.105469 44.105469-51-9.003907-.601562-2.996093-12.003907-51.605469 44.105469-44.101562zm0 0" fill="#ede9e8"/><path d="m191.613281 320.386719 31.804688 31.800781-44.105469 44.105469-51-9.003907-.601562-2.996093zm0 0" fill="#d2c5c2"/><path d="m454.734375 57.265625c-76.207031-76.503906-199.214844-76.203125-275.421875 0-76.503906 76.207031-76.203125 199.214844 0 275.421875 76.207031 76.503906 199.214844 76.207031 275.421875 0 76.503906-76.207031 76.203125-199.214844 0-275.421875zm0 0" fill="#68544f"/><path d="m454.734375 332.6875c-76.207031 76.207031-199.214844 76.503906-275.421875 0l275.421875-275.421875c76.203125 76.207031 76.503906 199.214844 0 275.421875zm0 0" fill="#53433f"/><path d="m433.730469 78.269531c-64.503907-64.507812-168.910157-64.507812-233.417969 0-64.5 64.503907-64.5 168.910157 0 233.417969 64.507812 64.503906 168.914062 64.503906 233.417969 0 64.503906-64.507812 64.503906-168.914062 0-233.417969zm0 0" fill="#ede9e8"/><path d="m433.730469 311.6875c-64.503907 64.503906-168.910157 64.503906-233.417969 0l233.417969-233.417969c64.503906 64.503907 64.503906 168.910157 0 233.417969zm0 0" fill="#dfd7d5"/><path d="m404.628906 107.371094c-18.902344-28.5-51.003906-47.402344-87.605468-47.402344-57.902344 0-105.007813 47.101562-105.007813 105.007812 0 20.398438 6 40.199219 16.800781 57.300782.300782.300781.601563.300781.601563.601562l25.5 34.203125 50.105469 66.902344c2.699218 3.902344 7.199218 6 12 6 4.800781 0 9.300781-2.097656 12.003906-6l76.203125-101.707031c10.800781-17.101563 16.800781-36.902344 16.800781-57.300782 0-21.304687-6.300781-41.105468-17.402344-57.605468zm-87.605468 102.609375c-4.5 0-8.699219-.601563-12.902344-2.101563-18.601563-5.402344-32.101563-22.503906-32.101563-42.902344 0-24.902343 20.101563-45.003906 45.003907-45.003906 20.402343 0 37.503906 13.5 42.902343 32.101563 1.5 4.199219 2.101563 8.398437 2.101563 12.902343 0 24.898438-20.101563 45.003907-45.003906 45.003907zm0 0" fill="#ff4b00"/><path d="m422.03125 164.976562c0 20.398438-6 40.199219-16.800781 57.300782l-76.203125 101.707031c-2.703125 3.902344-7.203125 6-12.003906 6-4.800782 0-9.300782-2.097656-12-6l-50.105469-66.902344 49.203125-49.203125c4.203125 1.5 8.402344 2.101563 12.902344 2.101563 24.902343 0 45.003906-20.105469 45.003906-45.003907 0-4.503906-.601563-8.703124-2.101563-12.902343l44.703125-44.703125c11.101563 16.5 17.402344 36.300781 17.402344 57.605468zm0 0" fill="#dd3400"/><path d="m179.3125 396.292969-102.429688 102.429687c-17.703124 17.703125-46.203124 17.703125-63.605468 0-17.703125-17.402344-17.703125-45.902344 0-63.605468l102.429687-102.433594zm0 0" fill="#73bcff"/><path d="m147.511719 364.488281 31.800781 31.804688-102.429688 102.429687c-17.703124 17.703125-46.203124 17.703125-63.605468 0zm0 0" fill="#0095ff"/></svg>