<?xml version="1.0" encoding="iso-8859-1"?>
<!-- Generator: Adobe Illustrator 19.0.0, SVG Export Plug-In . SVG Version: 6.00 Build 0)  -->
<svg version="1.1" id="Capa_1" xmlns="http://www.w3.org/2000/svg" xmlns:xlink="http://www.w3.org/1999/xlink" x="0px" y="0px"
	 viewBox="0 0 430.123 430.123" style="enable-background:new 0 0 430.123 430.123;" xml:space="preserve">
<rect x="158.349" y="162.919" style="fill:#44C4A1;" width="117.359" height="250.436"/>
<g>
	<rect x="141.585" y="413.377" style="fill:#DC8744;" width="148.796" height="8.384"/>
	<rect x="129.357" y="421.739" style="fill:#DC8744;" width="173.943" height="8.384"/>
	<polygon style="fill:#DC8744;" points="220.522,107.733 213.536,107.733 158.349,162.92 275.709,162.92 	"/>
</g>
<g>
	<polygon style="fill:#D5D6DB;" points="250.211,162.92 263.484,162.92 219.794,107.733 219.004,107.733 	"/>
	<polygon style="fill:#D5D6DB;" points="223.666,162.92 236.939,162.92 218.214,107.733 217.424,107.733 	"/>
	<polygon style="fill:#D5D6DB;" points="197.12,162.92 210.393,162.92 216.634,107.733 215.844,107.733 	"/>
	<polygon style="fill:#D5D6DB;" points="170.574,162.92 183.847,162.92 215.054,107.733 214.264,107.733 	"/>
</g>
<circle style="fill:#64798A;" cx="216" cy="148.587" r="13.274"/>
<g>
	<rect x="158.349" y="175.583" style="fill:#31978C;" width="117.359" height="13.099"/>
	<rect x="158.349" y="200.043" style="fill:#31978C;" width="117.359" height="13.099"/>
	<rect x="158.349" y="224.491" style="fill:#31978C;" width="117.359" height="13.099"/>
	<rect x="158.349" y="248.931" style="fill:#31978C;" width="117.359" height="13.099"/>
	<rect x="158.349" y="273.387" style="fill:#31978C;" width="117.359" height="13.099"/>
	<rect x="158.349" y="297.835" style="fill:#31978C;" width="117.359" height="13.099"/>
	<rect x="158.349" y="322.283" style="fill:#31978C;" width="117.359" height="13.099"/>
	<rect x="158.349" y="346.731" style="fill:#31978C;" width="117.359" height="13.099"/>
	<rect x="158.349" y="371.179" style="fill:#31978C;" width="117.359" height="13.099"/>
	<rect x="158.349" y="395.627" style="fill:#31978C;" width="117.359" height="13.099"/>
</g>
<rect x="212.406" y="111.593" transform="matrix(-0.7071 0.7071 -0.7071 -0.7071 507.7826 21.2394)" style="fill:#64798A;" width="74.172" height="8.384"/>
<path style="fill:#3A556A;" d="M289.037,107.733l-22.488-24.872l84.463-76.366c10.302-9.315,26.206-8.514,35.52,1.788l5.622,6.218
	L289.037,107.733z"/>
<rect x="176.454" y="78.722" transform="matrix(-0.7071 0.7071 -0.7071 -0.7071 390.2691 69.9529)" style="fill:#64798A;" width="8.384" height="74.172"/>
<path style="fill:#3A556A;" d="M141.101,107.733l22.488-24.872L79.127,6.494C68.824-2.82,52.921-2.02,43.607,8.283l-5.622,6.218
	L141.101,107.733z"/>
<rect x="245.26" y="143.458" transform="matrix(-0.7071 0.7071 -0.7071 -0.7071 553.5045 131.8187)" style="fill:#64798A;" width="8.384" height="74.172"/>
<path style="fill:#3A556A;" d="M289.022,188.634l-22.488,24.872l84.463,76.366c10.302,9.315,26.206,8.514,35.52-1.788l5.622-6.218
	L289.022,188.634z"/>
<rect x="143.553" y="176.383" transform="matrix(-0.7071 0.7071 -0.7071 -0.7071 436.0565 180.5288)" style="fill:#64798A;" width="74.172" height="8.384"/>
<path style="fill:#3A556A;" d="M141.086,188.634l22.488,24.872l-84.463,76.366c-10.302,9.315-26.206,8.514-35.52-1.788l-5.622-6.218
	L141.086,188.634z"/>
<g>
</g>
<g>
</g>
<g>
</g>
<g>
</g>
<g>
</g>
<g>
</g>
<g>
</g>
<g>
</g>
<g>
</g>
<g>
</g>
<g>
</g>
<g>
</g>
<g>
</g>
<g>
</g>
<g>
</g>
</svg>
