<svg xmlns="http://www.w3.org/2000/svg" xmlns:xlink="http://www.w3.org/1999/xlink" width="48" height="48" preserveAspectRatio="xMidYMid meet" viewBox="0 0 48 48" style="-ms-transform: rotate(360deg); -webkit-transform: rotate(360deg); transform: rotate(360deg);"><path fill="#CFD8DC" d="M12 40V20h32v20c0 2.2-1.8 4-4 4H16c-2.2 0-4-1.8-4-4z"/><path fill="#78909C" d="M44 16v6H12v-6c0-2.2 1.8-4 4-4h24c2.2 0 4 1.8 4 4z"/><g fill="#37474F"><circle cx="37" cy="16" r="3"/><circle cx="20" cy="16" r="3"/></g><g fill="#B0BEC5"><path d="M37 10c-1.1 0-2 .9-2 2v4c0 1.1.9 2 2 2s2-.9 2-2v-4c0-1.1-.9-2-2-2z"/><path d="M20 10c-1.1 0-2 .9-2 2v4c0 1.1.9 2 2 2s2-.9 2-2v-4c0-1.1-.9-2-2-2z"/></g><path fill="#90A4AE" d="M32 34h4v4h-4z"/><path fill="#90A4AE" d="M26 34h4v4h-4z"/><path fill="#90A4AE" d="M20 34h4v4h-4z"/><path fill="#90A4AE" d="M32 28h4v4h-4z"/><path fill="#90A4AE" d="M26 28h4v4h-4z"/><path fill="#90A4AE" d="M20 28h4v4h-4z"/><circle fill="#F44336" cx="16" cy="15" r="12"/><circle fill="#eee" cx="16" cy="15" r="9"/><path d="M15 8h2v7h-2z" fill="#000"/><path d="M20.518 18.1l-1.343 1.344l-3.818-3.818l1.344-1.343z" fill="#000"/><circle cx="16" cy="15" r="1.5" fill="#000"/><rect x="0" y="0" width="48" height="48" fill="rgba(0, 0, 0, 0)" /></svg>