<svg xmlns="http://www.w3.org/2000/svg" xmlns:xlink="http://www.w3.org/1999/xlink" width="24" height="24" preserveAspectRatio="xMidYMid meet" viewBox="0 0 24 24" style="-ms-transform: rotate(360deg); -webkit-transform: rotate(360deg); transform: rotate(360deg);"><g fill="none" stroke="#626262" stroke-width="2" stroke-linecap="round" stroke-linejoin="round"><path d="M19 1l4 4l-4 4"/><path d="M15 5h8"/><path d="M22 16.92v3a2 2 0 0 1-2.18 2a19.79 19.79 0 0 1-8.63-3.07a19.5 19.5 0 0 1-6-6a19.79 19.79 0 0 1-3.07-8.67A2 2 0 0 1 4.11 2h3a2 2 0 0 1 2 1.72a12.84 12.84 0 0 0 .7 2.81a2 2 0 0 1-.45 2.11L8.09 9.91a16 16 0 0 0 6 6l1.27-1.27a2 2 0 0 1 2.11-.45a12.84 12.84 0 0 0 2.81.7A2 2 0 0 1 22 16.92z"/></g><rect x="0" y="0" width="24" height="24" fill="rgba(0, 0, 0, 0)" /></svg>