<svg xmlns="http://www.w3.org/2000/svg" xmlns:xlink="http://www.w3.org/1999/xlink" width="20" height="20" preserveAspectRatio="xMidYMid meet" viewBox="0 0 20 20" style="-ms-transform: rotate(360deg); -webkit-transform: rotate(360deg); transform: rotate(360deg);"><path d="M5.315 3.401c-1.61 0-2.916 1.343-2.916 3c0 1.656 1.306 3 2.916 3c2.915 0 .972 5.799-2.916 5.799v1.4c6.939.001 9.658-13.199 2.916-13.199zm8.4 0c-1.609 0-2.915 1.343-2.915 3c0 1.656 1.306 3 2.915 3c2.916 0 .973 5.799-2.915 5.799v1.4c6.938.001 9.657-13.199 2.915-13.199z" fill="#626262"/><rect x="0" y="0" width="20" height="20" fill="rgba(0, 0, 0, 0)" /></svg>