<svg xmlns="http://www.w3.org/2000/svg" xmlns:xlink="http://www.w3.org/1999/xlink" width="2016" height="2176" preserveAspectRatio="xMidYMid meet" viewBox="0 0 2016 2176" style="-ms-transform: rotate(360deg); -webkit-transform: rotate(360deg); transform: rotate(360deg);"><path d="M1000 20l1000 300q0 136-2.5 228t-13 217.5t-30 216t-55 205T1813 1391t-126.5 195t-172.5 196t-226.5 188.5T1000 2160q-158-92-287.5-189.5T486 1782t-172.5-196T187 1391t-86.5-204.5t-55-205t-30-216T2.5 548T0 320zm673 732q0-36-24-60l-118-118q-25-25-59-25q-33 0-58 25l-533 531l-294-295q-24-24-59-24t-59 24L351 928q-25 25-25 61q0 32 25 57l472 472q25 25 58 25q35 0 60-25l708-708q24-24 24-58z" fill="#626262"/><rect x="0" y="0" width="2016" height="2176" fill="rgba(0, 0, 0, 0)" /></svg>