<svg xmlns="http://www.w3.org/2000/svg" xmlns:xlink="http://www.w3.org/1999/xlink" width="16" height="17" preserveAspectRatio="xMidYMid meet" viewBox="0 0 16 17" style="-ms-transform: rotate(360deg); -webkit-transform: rotate(360deg); transform: rotate(360deg);"><path fill-rule="evenodd" d="M12 9V7H8V5h4V3l4 3l-4 3zm-2 3H6V3L2 1h8v3h1V1c0-.55-.45-1-1-1H1C.45 0 0 .45 0 1v11.38c0 .39.22.73.55.91L6 16.01V13h4c.55 0 1-.45 1-1V8h-1v4z" fill="#626262"/><rect x="0" y="0" width="16" height="17" fill="rgba(0, 0, 0, 0)" /></svg>