<svg xmlns="http://www.w3.org/2000/svg" xmlns:xlink="http://www.w3.org/1999/xlink" width="24" height="24" preserveAspectRatio="xMidYMid meet" viewBox="0 0 24 24" style="-ms-transform: rotate(360deg); -webkit-transform: rotate(360deg); transform: rotate(360deg);"><path d="M12 2a10 10 0 0 1 10 10a10 10 0 0 1-10 10A10 10 0 0 1 2 12A10 10 0 0 1 12 2m0 2c-4.41 0-8 3.59-8 8s3.59 8 8 8s8-3.59 8-8s-3.59-8-8-8m4 4v8l-5-4m-1-4v8H8V8" fill="#626262"/><rect x="0" y="0" width="24" height="24" fill="rgba(0, 0, 0, 0)" /></svg>