<svg xmlns="http://www.w3.org/2000/svg" xmlns:xlink="http://www.w3.org/1999/xlink" width="24" height="24" preserveAspectRatio="xMidYMid meet" viewBox="0 0 24 24" style="-ms-transform: rotate(360deg); -webkit-transform: rotate(360deg); transform: rotate(360deg);"><path d="M4 3a2 2 0 0 0-2 2v14a2 2 0 0 0 2 2h8a2 2 0 0 0 2-2V5a2 2 0 0 0-2-2H4m4 2a2 2 0 0 1 2 2a2 2 0 0 1-2 2a2 2 0 0 1-2-2a2 2 0 0 1 2-2m11 2v3.79L16.71 8.5l-.71.71L18.79 12L16 14.79l.71.71L19 13.21V17h.5l2.85-2.86L20.21 12l2.14-2.15L19.5 7H19m1 1.91l.94.94l-.94.94V8.91M8 11a4 4 0 0 1 4 4a4 4 0 0 1-4 4a4 4 0 0 1-4-4a4 4 0 0 1 4-4m0 2a2 2 0 0 0-2 2a2 2 0 0 0 2 2a2 2 0 0 0 2-2a2 2 0 0 0-2-2m12 .21l.94.93l-.94.94v-1.87z" fill="#626262"/><rect x="0" y="0" width="24" height="24" fill="rgba(0, 0, 0, 0)" /></svg>