<svg xmlns="http://www.w3.org/2000/svg" xmlns:xlink="http://www.w3.org/1999/xlink" width="24" height="24" preserveAspectRatio="xMidYMid meet" viewBox="0 0 24 24" style="-ms-transform: rotate(360deg); -webkit-transform: rotate(360deg); transform: rotate(360deg);"><path d="M12 12a3 3 0 0 0-3 3a3 3 0 0 0 3 3a3 3 0 0 0 3-3a3 3 0 0 0-3-3m0 8a5 5 0 0 1-5-5a5 5 0 0 1 5-5a5 5 0 0 1 5 5a5 5 0 0 1-5 5m0-16a2 2 0 0 1 2 2a2 2 0 0 1-2 2a2 2 0 0 1-2-2c0-1.11.89-2 2-2m5-2H7c-1.11 0-2 .89-2 2v16a2 2 0 0 0 2 2h10a2 2 0 0 0 2-2V4a2 2 0 0 0-2-2z" fill="#626262"/><rect x="0" y="0" width="24" height="24" fill="rgba(0, 0, 0, 0)" /></svg>