<svg xmlns="http://www.w3.org/2000/svg" xmlns:xlink="http://www.w3.org/1999/xlink" width="24" height="24" preserveAspectRatio="xMidYMid meet" viewBox="0 0 24 24" style="-ms-transform: rotate(360deg); -webkit-transform: rotate(360deg); transform: rotate(360deg);"><path d="M5 3c-1.11 0-2 .89-2 2v14a2 2 0 0 0 2 2h14a2 2 0 0 0 2-2V5a2 2 0 0 0-2-2H5m6.24 3H19v2h-6.24L10 18H8l-1.75-6H5v-2h2.75L9 14.28L11.24 6M14 10.59l1.79 1.79l1.8-1.79L19 12l-1.79 1.79l1.79 1.8L17.59 17l-1.8-1.79L14 17l-1.41-1.41l1.79-1.8L12.59 12L14 10.59z" fill="#626262"/><rect x="0" y="0" width="24" height="24" fill="rgba(0, 0, 0, 0)" /></svg>