<svg xmlns="http://www.w3.org/2000/svg" xmlns:xlink="http://www.w3.org/1999/xlink" width="24" height="24" preserveAspectRatio="xMidYMid meet" viewBox="0 0 24 24" style="-ms-transform: rotate(360deg); -webkit-transform: rotate(360deg); transform: rotate(360deg);"><path d="M12 4c4.41 0 8 3.59 8 8s-3.59 8-8 8s-8-3.59-8-8s3.59-8 8-8m0-2C6.477 2 2 6.477 2 12s4.477 10 10 10s10-4.477 10-10S17.523 2 12 2zM7.55 13c-.02.166-.05.33-.05.5a4.5 4.5 0 0 0 9 0c0-.17-.032-.334-.05-.5h-8.9zM10 10V8a1 1 0 0 0-2 0v2a1 1 0 0 0 2 0zm6 0V8a1 1 0 0 0-2 0v2a1 1 0 0 0 2 0z" fill="#626262"/><rect x="0" y="0" width="24" height="24" fill="rgba(0, 0, 0, 0)" /></svg>