<svg xmlns="http://www.w3.org/2000/svg" xmlns:xlink="http://www.w3.org/1999/xlink" width="24" height="24" preserveAspectRatio="xMidYMid meet" viewBox="0 0 24 24" style="-ms-transform: rotate(360deg); -webkit-transform: rotate(360deg); transform: rotate(360deg);"><path d="M4 6l4 4V7h8a2 2 0 0 1 2 2a2 2 0 0 1-2 2H8a4 4 0 0 0-4 4a4 4 0 0 0 4 4h8v3l4-4l-4-4v3H8a2 2 0 0 1-2-2a2 2 0 0 1 2-2h8a4 4 0 0 0 4-4a4 4 0 0 0-4-4H8V2L4 6z" fill="#626262"/><rect x="0" y="0" width="24" height="24" fill="rgba(0, 0, 0, 0)" /></svg>