<svg xmlns="http://www.w3.org/2000/svg" xmlns:xlink="http://www.w3.org/1999/xlink" width="24" height="24" preserveAspectRatio="xMidYMid meet" viewBox="0 0 24 24" style="-ms-transform: rotate(360deg); -webkit-transform: rotate(360deg); transform: rotate(360deg);"><path d="M18 4l-4 4h3v8a2 2 0 0 1-2 2a2 2 0 0 1-2-2V8a4 4 0 0 0-4-4a4 4 0 0 0-4 4v8H2l4 4l4-4H7V8a2 2 0 0 1 2-2a2 2 0 0 1 2 2v8a4 4 0 0 0 4 4a4 4 0 0 0 4-4V8h3l-4-4z" fill="#626262"/><rect x="0" y="0" width="24" height="24" fill="rgba(0, 0, 0, 0)" /></svg>