<svg xmlns="http://www.w3.org/2000/svg" xmlns:xlink="http://www.w3.org/1999/xlink" width="24" height="24" preserveAspectRatio="xMidYMid meet" viewBox="0 0 24 24" style="-ms-transform: rotate(360deg); -webkit-transform: rotate(360deg); transform: rotate(360deg);"><path d="M20 2.007h-7.087c-.53 0-1.04.21-1.414.586L2.592 11.5a2 2 0 0 0 0 2.827l7.086 7.086a2 2 0 0 0 2.827 0l8.906-8.906c.376-.374.587-.883.587-1.413V4.007a2 2 0 0 0-2-2zM17.007 9a2 2 0 1 1-.001-3.999A2 2 0 0 1 17.007 9z" fill="#626262"/><rect x="0" y="0" width="24" height="24" fill="rgba(0, 0, 0, 0)" /></svg>