<svg xmlns="http://www.w3.org/2000/svg" xmlns:xlink="http://www.w3.org/1999/xlink" width="40" height="40" preserveAspectRatio="xMidYMid meet" viewBox="0 0 40 40" style="-ms-transform: rotate(360deg); -webkit-transform: rotate(360deg); transform: rotate(360deg);"><path fill="#626262" d="M20.001 34.284a6.514 6.514 0 0 1-6.507-6.507c0-1.84.776-3.584 2.139-4.819V9.11a3.399 3.399 0 0 1 3.394-3.395h1.945a3.398 3.398 0 0 1 3.394 3.395v13.848a6.497 6.497 0 0 1 2.139 4.819a6.512 6.512 0 0 1-6.504 6.507zm-.974-27.611a2.44 2.44 0 0 0-2.437 2.438v14.064a.479.479 0 0 1-.169.365a5.544 5.544 0 0 0-1.97 4.237a5.555 5.555 0 0 0 5.55 5.55a5.555 5.555 0 0 0 5.548-5.55a5.542 5.542 0 0 0-1.97-4.237a.48.48 0 0 1-.169-.365V9.11a2.441 2.441 0 0 0-2.438-2.438h-1.945z"/><circle fill="#626262" cx="20" cy="27.97" r="3.694"/><path fill="#626262" d="M21.361 25.054a1.36 1.36 0 1 1-2.722 0v-8.166a1.36 1.36 0 0 1 2.722 0v8.166z"/><path fill="#626262" d="M19.681 14.45H16.57a.478.478 0 1 1 0-.957h3.111a.478.478 0 1 1 0 .957z"/><g><path fill="#626262" d="M19.681 12.116H16.57a.478.478 0 1 1 0-.957h3.111a.478.478 0 1 1 0 .957z"/></g><rect x="0" y="0" width="40" height="40" fill="rgba(0, 0, 0, 0)" /></svg>