<svg xmlns="http://www.w3.org/2000/svg" xmlns:xlink="http://www.w3.org/1999/xlink" width="24" height="24" preserveAspectRatio="xMidYMid meet" viewBox="0 0 24 24" style="-ms-transform: rotate(360deg); -webkit-transform: rotate(360deg); transform: rotate(360deg);"><path d="M19 15V3h4v12h-4M15 3a2 2 0 0 1 2 2v10c0 .55-.22 1.05-.59 1.41L9.83 23l-1.06-1.06c-.27-.27-.44-.64-.44-1.06l.03-.31l.95-4.57H3a2 2 0 0 1-2-2v-2c0-.26.05-.5.14-.73l3.02-7.05C4.46 3.5 5.17 3 6 3h9m0 2H5.97L3 12v2h8.78l-1.13 5.32L15 14.97V5z" fill="#626262"/><rect x="0" y="0" width="24" height="24" fill="rgba(0, 0, 0, 0)" /></svg>