<svg xmlns="http://www.w3.org/2000/svg" xmlns:xlink="http://www.w3.org/1999/xlink" width="24" height="24" preserveAspectRatio="xMidYMid meet" viewBox="0 0 24 24" style="-ms-transform: rotate(360deg); -webkit-transform: rotate(360deg); transform: rotate(360deg);"><path d="M13 8.5h-2v-2h2v2m0 4.5h-2v-2h2v2m0 4.5h-2v-2h2v2m9-7.5V6a2 2 0 0 0-2-2H4a2 2 0 0 0-2 2v4a2 2 0 0 1 2 2a2 2 0 0 1-2 2v4a2 2 0 0 0 2 2h16a2 2 0 0 0 2-2v-4a2 2 0 0 1-2-2a2 2 0 0 1 2-2z" fill="#626262"/><rect x="0" y="0" width="24" height="24" fill="rgba(0, 0, 0, 0)" /></svg>