<svg xmlns="http://www.w3.org/2000/svg" xmlns:xlink="http://www.w3.org/1999/xlink" width="24" height="24" preserveAspectRatio="xMidYMid meet" viewBox="0 0 24 24" style="-ms-transform: rotate(360deg); -webkit-transform: rotate(360deg); transform: rotate(360deg);"><path d="M4 4a2 2 0 0 0-2 2v4a2 2 0 0 1 2 2a2 2 0 0 1-2 2v4a2 2 0 0 0 2 2h16a2 2 0 0 0 2-2v-4a2 2 0 0 1-2-2a2 2 0 0 1 2-2V6a2 2 0 0 0-2-2H4m11.5 3L17 8.5L8.5 17L7 15.5L15.5 7m-6.69.04c.98 0 1.77.79 1.77 1.77a1.77 1.77 0 0 1-1.77 1.77c-.98 0-1.77-.79-1.77-1.77a1.77 1.77 0 0 1 1.77-1.77m6.38 6.38c.98 0 1.77.79 1.77 1.77a1.77 1.77 0 0 1-1.77 1.77c-.98 0-1.77-.79-1.77-1.77a1.77 1.77 0 0 1 1.77-1.77z" fill="#626262"/><rect x="0" y="0" width="24" height="24" fill="rgba(0, 0, 0, 0)" /></svg>