<svg xmlns="http://www.w3.org/2000/svg" xmlns:xlink="http://www.w3.org/1999/xlink" width="24" height="24" preserveAspectRatio="xMidYMid meet" viewBox="0 0 24 24" style="-ms-transform: rotate(360deg); -webkit-transform: rotate(360deg); transform: rotate(360deg);"><path d="M4 4a2 2 0 0 0-2 2v4a2 2 0 0 1 2 2a2 2 0 0 1-2 2v4a2 2 0 0 0 2 2h16a2 2 0 0 0 2-2v-4a2 2 0 0 1-2-2a2 2 0 0 1 2-2V6a2 2 0 0 0-2-2H4m0 2h16v2.54c-1.24.71-2 2.03-2 3.46c0 1.43.76 2.75 2 3.46V18H4v-2.54c1.24-.71 2-2.03 2-3.46c0-1.43-.76-2.75-2-3.46V6z" fill="#626262"/><rect x="0" y="0" width="24" height="24" fill="rgba(0, 0, 0, 0)" /></svg>