<svg xmlns="http://www.w3.org/2000/svg" xmlns:xlink="http://www.w3.org/1999/xlink" width="42" height="42" preserveAspectRatio="xMidYMid meet" viewBox="0 0 42 42" style="-ms-transform: rotate(360deg); -webkit-transform: rotate(360deg); transform: rotate(360deg);"><path d="M13.5 9.53v-4c0-2.5-.53-3-3-3l-4-.03c-2.38 0-3 .561-3 3v4c0 2.471.5 3 3 3h4c2.5 0 3-.5 3-2.97zm0 12.999v-4c0-2.5-.53-3-3-3l-4-.03c-2.38 0-3 .561-3 3v4c0 2.471.5 3 3 3h4c2.5.001 3-.499 3-2.97zm0 13v-4c0-2.5-.53-3-3-3l-4-.029c-2.38 0-3 .561-3 3v4c0 2.471.5 3 3 3h4c2.5 0 3-.5 3-2.971zm13-25.999v-4c0-2.5-.529-3-3-3l-4-.03c-2.38 0-3 .561-3 3v4c0 2.471.5 3 3 3h4c2.5 0 3-.5 3-2.97zm0 12.999v-4c0-2.5-.529-3-3-3l-4-.03c-2.38 0-3 .561-3 3v4c0 2.471.5 3 3 3h4c2.5.001 3-.499 3-2.97zm0 13v-4c0-2.5-.529-3-3-3l-4-.029c-2.38 0-3 .561-3 3v4c0 2.471.5 3 3 3h4c2.5 0 3-.5 3-2.971zm13-25.999v-4c0-2.5-.529-3-3-3l-4-.03c-2.38 0-3 .561-3 3v4c0 2.471.5 3 3 3h4c2.5 0 3-.5 3-2.97zm0 12.999v-4c0-2.5-.529-3-3-3l-4-.03c-2.38 0-3 .561-3 3v4c0 2.471.5 3 3 3h4c2.5.001 3-.499 3-2.97zm0 13v-4c0-2.5-.529-3-3-3l-4-.029c-2.38 0-3 .561-3 3v4c0 2.471.5 3 3 3h4c2.5 0 3-.5 3-2.971z" fill="#626262"/><rect x="0" y="0" width="42" height="42" fill="rgba(0, 0, 0, 0)" /></svg>