<svg xmlns="http://www.w3.org/2000/svg" xmlns:xlink="http://www.w3.org/1999/xlink" width="24" height="24" preserveAspectRatio="xMidYMid meet" viewBox="0 0 24 24" style="-ms-transform: rotate(360deg); -webkit-transform: rotate(360deg); transform: rotate(360deg);"><path d="M4 2h16a2 2 0 0 1 2 2v12a2 2 0 0 1-2 2h-4l-4 4l-4-4H4a2 2 0 0 1-2-2V4a2 2 0 0 1 2-2m14 12v-2h-5.5l-2 2H18M6 14h2.5l6.85-6.88c.2-.19.2-.51 0-.71l-1.76-1.76c-.2-.2-.52-.2-.71 0L6 11.53V14z" fill="#626262"/><rect x="0" y="0" width="24" height="24" fill="rgba(0, 0, 0, 0)" /></svg>