<svg height="512pt" viewBox="0 0 512 512" width="512pt" xmlns="http://www.w3.org/2000/svg"><path d="m512 255c0 108.300781-68.800781 202.699219-163.898438 239.597656l-64.503906-15.898437-27.597656-361.101563-9-117c3-.296875 6-.597656 9-.597656 140.699219 0 256 114.300781 256 255zm0 0" fill="#56c225"/><path d="m512 255c0 108.300781-68.800781 202.699219-163.898438 239.597656l-64.503906-15.898437-27.597656-361.101563v-117.597656c140.699219 0 256 114.300781 256 255zm0 0" fill="#49a520"/><path d="m395.5 283.199219c17.398438 17.398437 17.398438 46.199219 0 63.601562l-80.402344 80.398438c-5.398437 5.402343-5.996094 14.800781-1.5 20.5l34.503906 46.902343c-27.601562 10.796876-60.300781 17.398438-92.101562 17.398438-34.800781 0-67.800781-6.902344-97.800781-19.5l-81.296875-419c34.496094-33.898438 78.597656-58.199219 127.796875-68.402344 13.800781-2.699218 27.898437-4.199218 42.300781-4.5l9 7.203125 64.199219 51.296875c5.101562 4.203125 9.300781 9.300782 12.300781 15l18.597656 37.5c2.703125 5.101563 7.800782 8.402344 13.503906 8.402344h11.398438c24.902344 0 45 20.097656 45 45 0 24.898438-20.097656 45-45 45-8.402344 0-15 6.597656-15 15v17.699219c0 3.898437 1.5 7.800781 4.5 10.5zm0 0" fill="#a8ebfa"/><path d="m395.5 283.199219c17.398438 17.398437 17.398438 46.199219 0 63.601562l-80.402344 80.398438c-5.398437 5.402343-5.996094 14.800781-1.5 20.5l34.503906 46.902343c-27.601562 10.796876-60.300781 17.398438-92.101562 17.398438v-504.199219l64.199219 51.296875c5.101562 4.203125 9.300781 9.300782 12.300781 15l18.597656 37.5c2.703125 5.101563 7.800782 8.402344 13.503906 8.402344h11.398438c24.902344 0 45 20.097656 45 45 0 24.898438-20.097656 45-45 45-8.402344 0-15 6.597656-15 15v17.699219c0 3.898437 1.5 7.800781 4.5 10.5zm0 0" fill="#76e2f8"/><path d="m216.128906 143.289062-139.296875-69.640624c-7.375 7.285156-14.203125 15.089843-20.648437 23.222656-34.457032 43.480468-56.183594 98.339844-56.183594 158.128906 0 106.851562 66.839844 199.476562 158.144531 237.472656l54.878907-75.167968c8.789062-11.703126 11.320312-26.441407 6.972656-40.398438-4.367188-13.992188-14.839844-24.667969-28.742188-29.3125l-13.242187-4.394531c-4.480469-1.496094-7.921875-4.910157-9.445313-9.375-1.539062-4.453125-.910156-9.257813 1.699219-13.183594l34.304687-51.460937c20.726563-4.015626 36.429688-22.292969 36.429688-44.179688v-41.453125c0-17.15625-9.535156-32.578125-24.871094-40.257813zm0 0" fill="#56c225"/><path d="m106 0c-57.898438 0-106 47.101562-106 105 0 20.398438 7 40.199219 17.800781 57.300781l75.601563 115.800781c2.699218 4.199219 7.5 6.898438 12.597656 6.898438s9.902344-2.703125 12.597656-6.898438l75.601563-115.800781c10.800781-17.101562 16.800781-36.902343 16.800781-57.300781 0-57.898438-47.101562-105-105-105zm0 150c-24.902344 0-45-20.097656-45-45s20.097656-45 45-45 45 20.097656 45 45-20.097656 45-45 45zm0 0" fill="#ff4b00"/><path d="m211 105c0 20.398438-6 40.199219-16.800781 57.300781l-75.601563 115.800781c-2.699218 4.199219-7.5 6.898438-12.597656 6.898438v-135c24.902344 0 45-20.097656 45-45s-20.097656-45-45-45v-60c57.898438 0 105 47.101562 105 105zm0 0" fill="#dd3400"/></svg>