<svg xmlns="http://www.w3.org/2000/svg" xmlns:xlink="http://www.w3.org/1999/xlink" width="24" height="24" preserveAspectRatio="xMidYMid meet" viewBox="0 0 24 24" style="-ms-transform: rotate(360deg); -webkit-transform: rotate(360deg); transform: rotate(360deg);"><path d="M3 4h14v4h3l3 4v5h-2a3 3 0 0 1-3 3a3 3 0 0 1-3-3H9a3 3 0 0 1-3 3a3 3 0 0 1-3-3H1V6a2 2 0 0 1 2-2m14 5.5V12h4.47L19.5 9.5H17m-11 6A1.5 1.5 0 0 0 4.5 17A1.5 1.5 0 0 0 6 18.5A1.5 1.5 0 0 0 7.5 17A1.5 1.5 0 0 0 6 15.5m12 0a1.5 1.5 0 0 0-1.5 1.5a1.5 1.5 0 0 0 1.5 1.5a1.5 1.5 0 0 0 1.5-1.5a1.5 1.5 0 0 0-1.5-1.5M8 14l6-6l-1.41-1.42L8 11.17L5.91 9.08L4.5 10.5L8 14z" fill="#626262"/><rect x="0" y="0" width="24" height="24" fill="rgba(0, 0, 0, 0)" /></svg>