<svg xmlns="http://www.w3.org/2000/svg" xmlns:xlink="http://www.w3.org/1999/xlink" width="24" height="24" preserveAspectRatio="xMidYMid meet" viewBox="0 0 24 24" style="-ms-transform: rotate(360deg); -webkit-transform: rotate(360deg); transform: rotate(360deg);"><path d="M3 10c0 3.9 3.1 7 7 7c1.4 0 2.7-.5 3.8-1.2L19 21l2-2l-5.2-5.2c.8-1.1 1.2-2.4 1.2-3.8c0-3.9-3.1-7-7-7s-7 3.1-7 7zm2 0c0-2.8 2.2-5 5-5s5 2.2 5 5s-2.2 5-5 5s-5-2.2-5-5z" fill="#626262"/><path d="M7 9h6v2H7z" fill="#626262"/><rect x="0" y="0" width="24" height="24" fill="rgba(0, 0, 0, 0)" /></svg>